<svg version="1.1" style="width: 777px; height: 535px;" xmlns:xlink="http://www.w3.org/1999/xlink" xmlns="http://www.w3.org/2000/svg"><defs ><g xmlns="http://www.w3.org/2000/svg" id=":m1-256" bounds="38,462,696,17"><path stroke="none" fill="rgb(149,149,149)" d="M37.9 462.2 Q386.1 475.4 727.85 462.45 L729.45 462.4 733.45 462.2 726.4 471.35 Q388.85 484.1 44.95 471.35 L37.9 462.2 Z"/><path fill="none" stroke="rgb(0,0,0)" stroke-width="1" stroke-linecap="round" stroke-linejoin="round" d="M733.45 462.2 L726.4 471.35 Q388.85 484.1 44.95 471.35 L37.9 462.2"/></g><g xmlns="http://www.w3.org/2000/svg" id=":m99-256" bounds="-66,499,905,21"><path stroke="none" fill="rgb(149,149,149)" d="M837.75 499.2 L828.6 511.1 Q389.75 527.65 -57.25 511.1 L-66.45 499.2 Q386.25 516.35 830.5 499.5 L832.55 499.45 837.75 499.2 Z"/><path fill="none" stroke="rgb(0,0,0)" stroke-width="1" stroke-linecap="round" stroke-linejoin="round" d="M837.75 499.2 L828.6 511.1 Q389.75 527.65 -57.25 511.1 L-66.45 499.2"/></g><g xmlns="http://www.w3.org/2000/svg" id=":m2-256" bounds="-357,-139,715,279"><path stroke="none" fill="rgb(230,230,230)" d="M-350.3 -128.9 L-347.75 -129.25 -338.1 -129.75 Q-229.8 -135.55 -121.5 -137.65 113.15 -142.15 347.8 -129.25 351.6 -129.25 354.3 -126.55 357.05 -123.85 357.05 -119.95 L357.05 114.05 357.05 114.4 Q356.9 118 354.3 120.55 353.1 121.8 351.65 122.5 349.85 123.3 347.8 123.3 L343.8 123.5 343.8 123.35 Q346.6 122.8 348.75 120.65 350.05 119.35 350.8 117.8 L351.1 117.05 351.55 115.15 351.6 114.4 351.65 114.4 351.6 -113.45 Q351.6 -117.3 348.85 -120.05 346.15 -122.7 342.35 -122.7 115.3 -135.2 -121.5 -130.9 -231.35 -128.9 -343.25 -123.3 L-344.65 -123.25 Q-346.9 -123.4 -348.5 -125.05 -350.15 -126.7 -350.3 -128.9 Z"/><path stroke="none" fill="rgb(212,212,212)" d="M-350.3 -128.9 Q-350.15 -126.7 -348.5 -125.05 -346.9 -123.4 -344.65 -123.25 L-343.25 -123.3 Q-231.35 -128.9 -121.5 -130.9 115.3 -135.2 342.35 -122.7 346.15 -122.7 348.85 -120.05 351.6 -117.3 351.6 -113.45 L351.65 114.4 351.6 114.4 351.55 115.15 351.1 117.05 350.8 117.8 Q350.05 119.35 348.75 120.65 346.6 122.8 343.8 123.35 L343.8 123.5 342.2 123.55 Q0.45 136.5 -347.75 123.3 -351.6 123.3 -354.3 120.55 -357 117.85 -357 114.05 L-357 -119.95 Q-357.05 -121.4 -356.65 -122.65 -356.05 -124.85 -354.3 -126.55 -352.55 -128.3 -350.3 -128.9 M337 90.3 L337 -96.55 337 -96.85 Q336.9 -100.5 334.25 -103.15 331.55 -105.85 327.75 -105.8 L-324.3 -105.8 Q-328.15 -105.85 -330.9 -103.15 -333.6 -100.4 -333.55 -96.55 L-333.55 90.6 Q-333.6 94.45 -330.9 97.15 -328.15 99.85 -324.3 99.85 L327.75 99.85 Q331.55 99.85 334.25 97.15 337 94.45 337 90.6 L337 90.3"/><path stroke="none" fill="rgb(149,149,149)" d="M337 90.3 L337 90.6 Q337 94.45 334.25 97.15 331.55 99.85 327.75 99.85 L-324.3 99.85 Q-328.15 99.85 -330.9 97.15 -333.6 94.45 -333.55 90.6 L-333.55 -96.55 Q-333.6 -100.4 -330.9 -103.15 -328.15 -105.85 -324.3 -105.8 L327.75 -105.8 Q331.55 -105.85 334.25 -103.15 336.9 -100.5 337 -96.85 L337 -96.55 337 90.3"/><path fill="none" stroke="rgb(0,0,0)" stroke-width="1" stroke-linecap="round" stroke-linejoin="round" d="M337 90.3 L337 -96.55 337 -96.85 Q336.9 -100.5 334.25 -103.15 331.55 -105.85 327.75 -105.8 L-324.3 -105.8 Q-328.15 -105.85 -330.9 -103.15 -333.6 -100.4 -333.55 -96.55 L-333.55 90.6 Q-333.6 94.45 -330.9 97.15 -328.15 99.85 -324.3 99.85 L327.75 99.85 Q331.55 99.85 334.25 97.15 337 94.45 337 90.6"/><path fill="none" stroke="rgb(102,102,102)" stroke-width="1" stroke-linecap="round" stroke-linejoin="round" d="M347.8 123.3 Q349.85 123.3 351.65 122.5 353.1 121.8 354.3 120.55 356.9 118 357.05 114.4 L357.05 114.05 357.05 -119.95 Q357.05 -123.85 354.3 -126.55 351.6 -129.25 347.8 -129.25 113.15 -142.15 -121.5 -137.65 -229.8 -135.55 -338.1 -129.75 L-347.75 -129.25 -350.3 -128.9 Q-352.55 -128.3 -354.3 -126.55 -356.05 -124.85 -356.65 -122.65 -357.05 -121.4 -357 -119.95 L-357 114.05 Q-357 117.85 -354.3 120.55 -351.6 123.3 -347.75 123.3 0.45 136.5 342.2 123.55 L343.8 123.5 347.8 123.3 340.75 132.45 Q3.2 145.2 -340.7 132.45 L-347.75 123.3"/></g><g xmlns="http://www.w3.org/2000/svg" id=":m116-256" bounds="-358,-224,717,449"><path stroke="none" fill="rgb(255,255,255)" d="M101.55 -196.25 Q431 -266.4 337.5 -26.85 317.1 32.25 340.65 139.2 364.25 246.15 169.1 213.9 -26.15 181.6 -199.6 216.6 -373.1 251.65 -347.95 130.05 -322.9 8.4 -339.55 -36.05 -437.65 -297.3 -20.7 -195.95 42.6 -184.7 101.55 -196.25 Z"/></g><g xmlns="http://www.w3.org/2000/svg" id=":m118-256" bounds="-82,-51,165,103"><path stroke="none" fill="rgb(206,217,227)" d="M23.45 -45.3 Q99.45 -61.5 77.9 -6.2 73.15 7.45 78.6 32.15 84.05 56.8 39.05 49.35 -6.05 41.9 -46.05 50 -86.1 58.05 -80.3 30 -74.5 1.95 -78.35 -8.3 -101 -68.6 -4.75 -45.2 9.85 -42.65 23.45 -45.3 Z"/></g><g xmlns="http://www.w3.org/2000/svg" id=":m4-256" bounds="-22,-36,42,48"><path stroke="none" fill="rgb(0,0,0)" d="M2.9 -4.8 Q4.7 -4.15 6.75 -2.1 L19.7 11.25 16.2 11.25 2.05 3.1 Q-0.65 1.4 -1.4 -0.1 -2.45 -1.9 -0.85 -3.75 0.55 -5.55 2.9 -4.8 Z"/><path stroke="none" fill="rgb(0,0,0)" d="M1 -36.4 L3 -33.3 Q1.8 -31.3 0.05 -29.95 -1.65 -28.65 -3.85 -28.55 L-6.75 -29.1 -9.5 -30.4 Q-10.8 -31.15 -12.35 -31.7 -13.9 -32.3 -15.8 -32.3 -17.6 -32.25 -18.7 -31.05 -19.75 -29.85 -20.4 -28.35 L-22.4 -31.45 -20.9 -33.7 Q-20 -34.8 -18.65 -35.45 -17.35 -36.15 -15.5 -36.15 L-12.55 -35.65 -9.4 -34.4 -5.95 -32.95 -3.8 -32.45 Q-2.15 -32.5 -1.05 -33.7 L1 -36.4 Z"/></g><g xmlns="http://www.w3.org/2000/svg" id=":m7-256" bounds="63,12,14,41"><text x="0" y="51" font-family="&apos;Helvetica&apos;" font-size="55" fill="#000000" style="white-space:pre" transform="matrix(1 0 0 1 56.6 0)">1</text></g><g xmlns="http://www.w3.org/2000/svg" id=":m8-256" bounds="71,8,3,30"><text x="0" y="36" font-family="&apos;Helvetica&apos;" font-size="39" fill="#000000" style="white-space:pre" transform="matrix(1 0 0 1 66.5 0)">!</text></g><g xmlns="http://www.w3.org/2000/svg" id=":m9-256" bounds="59,12,26,41"><text x="0" y="51" font-family="&apos;Helvetica&apos;" font-size="55" fill="#000000" style="white-space:pre" transform="matrix(1 0 0 1 56.6 0)">2</text></g><g xmlns="http://www.w3.org/2000/svg" id=":m10-256" bounds="58,7,29,32"><text x="0" y="36" font-family="&apos;Helvetica&apos;" font-size="39" fill="#000000" style="white-space:pre" transform="matrix(1 0 0 1 52.1 0)">@</text></g><g xmlns="http://www.w3.org/2000/svg" id=":m11-256" bounds="59,12,27,42"><text x="0" y="51" font-family="&apos;Helvetica&apos;" font-size="55" fill="#000000" style="white-space:pre" transform="matrix(1 0 0 1 56.6 0)">3</text></g><g xmlns="http://www.w3.org/2000/svg" id=":m12-256" bounds="63,9,19,29"><text x="0" y="36" font-family="&apos;Helvetica&apos;" font-size="39" fill="#000000" style="white-space:pre" transform="matrix(1 0 0 1 61.05 0)">#</text></g><g xmlns="http://www.w3.org/2000/svg" id=":m13-256" bounds="59,12,27,41"><text x="0" y="51" font-family="&apos;Helvetica&apos;" font-size="55" fill="#000000" style="white-space:pre" transform="matrix(1 0 0 1 56.6 0)">4</text></g><g xmlns="http://www.w3.org/2000/svg" id=":m14-256" bounds="63,6,19,36"><text x="0" y="36" font-family="&apos;Helvetica&apos;" font-size="39" fill="#000000" style="white-space:pre" transform="matrix(1 0 0 1 61.05 0)">$</text></g><g xmlns="http://www.w3.org/2000/svg" id=":m15-256" bounds="59,13,26,41"><text x="0" y="51" font-family="&apos;Helvetica&apos;" font-size="55" fill="#000000" style="white-space:pre" transform="matrix(1 0 0 1 56.6 0)">5</text></g><g xmlns="http://www.w3.org/2000/svg" id=":m16-256" bounds="57,8,31,31"><text x="0" y="36" font-family="&apos;Helvetica&apos;" font-size="39" fill="#000000" style="white-space:pre" transform="matrix(1 0 0 1 54.6 0)">%</text></g><g xmlns="http://www.w3.org/2000/svg" id=":m17-256" bounds="59,12,27,42"><text x="0" y="51" font-family="&apos;Helvetica&apos;" font-size="55" fill="#000000" style="white-space:pre" transform="matrix(1 0 0 1 56.6 0)">6</text></g><g xmlns="http://www.w3.org/2000/svg" id=":m18-256" bounds="63,9,19,18"><text x="0" y="36" font-family="&apos;Helvetica&apos;" font-size="39" fill="#000000" style="white-space:pre" transform="matrix(1 0 0 1 62.75 0)">^</text></g><g xmlns="http://www.w3.org/2000/svg" id=":m19-256" bounds="59,13,27,40"><text x="0" y="51" font-family="&apos;Helvetica&apos;" font-size="55" fill="#000000" style="white-space:pre" transform="matrix(1 0 0 1 56.6 0)">7</text></g><g xmlns="http://www.w3.org/2000/svg" id=":m20-256" bounds="61,8,24,30"><text x="0" y="36" font-family="&apos;Helvetica&apos;" font-size="39" fill="#000000" style="white-space:pre" transform="matrix(1 0 0 1 58.9 0)">&amp;</text></g><g xmlns="http://www.w3.org/2000/svg" id=":m21-256" bounds="59,12,27,42"><text x="0" y="51" font-family="&apos;Helvetica&apos;" font-size="55" fill="#000000" style="white-space:pre" transform="matrix(1 0 0 1 56.6 0)">8</text></g><g xmlns="http://www.w3.org/2000/svg" id=":m23-256" bounds="60,12,51,45"><text x="0" y="56" font-family="&apos;KabaleMedium Normal&apos;" font-size="61" fill="#000000" style="white-space:pre" transform="matrix(1 0 0 1 59.75 0)">*</text></g><g xmlns="http://www.w3.org/2000/svg" id=":m24-256" bounds="59,12,26,42"><text x="0" y="51" font-family="&apos;Helvetica&apos;" font-size="55" fill="#000000" style="white-space:pre" transform="matrix(1 0 0 1 56.6 0)">9</text></g><g xmlns="http://www.w3.org/2000/svg" id=":m25-256" bounds="69,7,9,39"><text x="0" y="36" font-family="&apos;Helvetica&apos;" font-size="39" fill="#000000" style="white-space:pre" transform="matrix(1 0 0 1 65.4 0)">(</text></g><g xmlns="http://www.w3.org/2000/svg" id=":m124-256" bounds="-44,-71,89,143"><path stroke="none" fill="rgb(0,0,0)" d="M28.85 38.65 L30.4 41.2 Q17.3 62.55 -3.25 69.3 -26.45 76.95 -37.55 61.55 -48.75 46.1 -34.25 31.3 -19.8 16.5 -2 12.3 -30.9 -1.05 -40.25 -16.5 -52.25 -36.4 -33.3 -59.45 -16.4 -79.95 9.6 -66.6 34.6 -53.75 44.85 0.75 L41.1 2.05 Q32.05 -50.3 8.7 -62.3 -13.75 -73.8 -28.4 -56.65 L-29.65 -55.15 Q-52.05 -26.35 -24.7 -5.35 -14.35 2.6 -0.75 9.05 L8.6 13.15 Q-13.15 16.85 -27.3 31.25 -41.7 46 -31.55 60.35 -23.55 71.7 -3.9 65.15 15.7 58.55 28.85 38.65 M2.75 -53.4 Q6.2 -49.95 6.2 -45.05 6.2 -40.15 2.75 -36.7 -0.7 -33.25 -5.6 -33.25 -10.5 -33.25 -13.95 -36.7 -17.4 -40.15 -17.4 -45.05 -17.4 -49.95 -13.95 -53.4 -10.5 -56.85 -5.6 -56.85 -0.7 -56.85 2.75 -53.4 M-23.9 -23.15 Q-25.25 -21.75 -27.2 -21.75 -29.15 -21.75 -30.55 -23.15 -31.9 -24.5 -31.9 -26.45 -31.9 -28.4 -30.55 -29.8 -29.15 -31.15 -27.2 -31.15 -25.25 -31.15 -23.9 -29.8 -22.5 -28.4 -22.5 -26.45 -22.5 -24.5 -23.9 -23.15 M-7.2 -20.95 Q-4 -24.15 0.55 -24.15 5.1 -24.15 8.3 -20.95 11.5 -17.75 11.5 -13.2 11.5 -8.65 8.3 -5.45 5.1 -2.25 0.55 -2.25 -4 -2.25 -7.2 -5.45 -10.4 -8.65 -10.4 -13.2 -10.4 -17.75 -7.2 -20.95 M24.7 -28.3 Q24.7 -26.1 23.15 -24.55 21.6 -23 19.4 -23 17.2 -23 15.65 -24.55 14.1 -26.1 14.1 -28.3 14.1 -30.5 15.65 -32.05 17.2 -33.6 19.4 -33.6 21.6 -33.6 23.15 -32.05 24.7 -30.5 24.7 -28.3 M25.85 -6.85 Q28.55 -6.85 30.45 -4.95 32.35 -3.05 32.35 -0.35 32.35 2.35 30.45 4.25 28.55 6.15 25.85 6.15 23.15 6.15 21.25 4.25 19.35 2.35 19.35 -0.35 19.35 -3.05 21.25 -4.95 23.15 -6.85 25.85 -6.85 M20.45 24.95 Q20.45 26.3 19.45 27.25 18.5 28.25 17.15 28.25 15.8 28.25 14.8 27.25 13.85 26.3 13.85 24.95 13.85 23.6 14.8 22.6 15.8 21.65 17.15 21.65 18.5 21.65 19.45 22.6 20.45 23.6 20.45 24.95 M12.5 36.85 Q14 36.85 15.05 37.9 16.15 39 16.15 40.5 16.15 42 15.05 43.05 14 44.15 12.5 44.15 11 44.15 9.9 43.05 8.85 42 8.85 40.5 8.85 39 9.9 37.9 11 36.85 12.5 36.85 M-22 49 Q-23.2 50.25 -24.95 50.25 -26.7 50.25 -27.95 49 -29.15 47.8 -29.15 46.05 -29.15 44.3 -27.95 43.05 -26.7 41.85 -24.95 41.85 -23.2 41.85 -22 43.05 -20.75 44.3 -20.75 46.05 -20.75 47.8 -22 49 M-5.7 50 Q-4.05 51.65 -4.05 53.95 -4.05 56.25 -5.7 57.85 -7.3 59.5 -9.6 59.5 -11.9 59.5 -13.55 57.85 -15.15 56.25 -15.15 53.95 -15.15 51.65 -13.55 50 -11.9 48.4 -9.6 48.4 -7.3 48.4 -5.7 50 M-0.8 37.75 Q-2.8 39.75 -5.6 39.75 -8.4 39.75 -10.4 37.75 -12.4 35.75 -12.4 32.95 -12.4 30.15 -10.4 28.15 -8.4 26.15 -5.6 26.15 -2.8 26.15 -0.8 28.15 1.2 30.15 1.2 32.95 1.2 35.75 -0.8 37.75"/><path stroke="none" fill="rgb(205,150,114)" d="M-0.8 37.75 Q1.2 35.75 1.2 32.95 1.2 30.15 -0.8 28.15 -2.8 26.15 -5.6 26.15 -8.4 26.15 -10.4 28.15 -12.4 30.15 -12.4 32.95 -12.4 35.75 -10.4 37.75 -8.4 39.75 -5.6 39.75 -2.8 39.75 -0.8 37.75 M41.1 2.05 L28.85 38.65 Q15.7 58.55 -3.9 65.15 -23.55 71.7 -31.55 60.35 -41.7 46 -27.3 31.25 -13.15 16.85 8.6 13.15 L-0.75 9.05 Q-14.35 2.6 -24.7 -5.35 -52.05 -26.35 -29.65 -55.15 L-28.4 -56.65 Q-13.75 -73.8 8.7 -62.3 32.05 -50.3 41.1 2.05 M-5.7 50 Q-7.3 48.4 -9.6 48.4 -11.9 48.4 -13.55 50 -15.15 51.65 -15.15 53.95 -15.15 56.25 -13.55 57.85 -11.9 59.5 -9.6 59.5 -7.3 59.5 -5.7 57.85 -4.05 56.25 -4.05 53.95 -4.05 51.65 -5.7 50 M-22 49 Q-20.75 47.8 -20.75 46.05 -20.75 44.3 -22 43.05 -23.2 41.85 -24.95 41.85 -26.7 41.85 -27.95 43.05 -29.15 44.3 -29.15 46.05 -29.15 47.8 -27.95 49 -26.7 50.25 -24.95 50.25 -23.2 50.25 -22 49 M12.5 36.85 Q11 36.85 9.9 37.9 8.85 39 8.85 40.5 8.85 42 9.9 43.05 11 44.15 12.5 44.15 14 44.15 15.05 43.05 16.15 42 16.15 40.5 16.15 39 15.05 37.9 14 36.85 12.5 36.85 M20.45 24.95 Q20.45 23.6 19.45 22.6 18.5 21.65 17.15 21.65 15.8 21.65 14.8 22.6 13.85 23.6 13.85 24.95 13.85 26.3 14.8 27.25 15.8 28.25 17.15 28.25 18.5 28.25 19.45 27.25 20.45 26.3 20.45 24.95 M25.85 -6.85 Q23.15 -6.85 21.25 -4.95 19.35 -3.05 19.35 -0.35 19.35 2.35 21.25 4.25 23.15 6.15 25.85 6.15 28.55 6.15 30.45 4.25 32.35 2.35 32.35 -0.35 32.35 -3.05 30.45 -4.95 28.55 -6.85 25.85 -6.85 M24.7 -28.3 Q24.7 -30.5 23.15 -32.05 21.6 -33.6 19.4 -33.6 17.2 -33.6 15.65 -32.05 14.1 -30.5 14.1 -28.3 14.1 -26.1 15.65 -24.55 17.2 -23 19.4 -23 21.6 -23 23.15 -24.55 24.7 -26.1 24.7 -28.3 M-7.2 -20.95 Q-10.4 -17.75 -10.4 -13.2 -10.4 -8.65 -7.2 -5.45 -4 -2.25 0.55 -2.25 5.1 -2.25 8.3 -5.45 11.5 -8.65 11.5 -13.2 11.5 -17.75 8.3 -20.95 5.1 -24.15 0.55 -24.15 -4 -24.15 -7.2 -20.95 M-23.9 -23.15 Q-22.5 -24.5 -22.5 -26.45 -22.5 -28.4 -23.9 -29.8 -25.25 -31.15 -27.2 -31.15 -29.15 -31.15 -30.55 -29.8 -31.9 -28.4 -31.9 -26.45 -31.9 -24.5 -30.55 -23.15 -29.15 -21.75 -27.2 -21.75 -25.25 -21.75 -23.9 -23.15 M2.75 -53.4 Q-0.7 -56.85 -5.6 -56.85 -10.5 -56.85 -13.95 -53.4 -17.4 -49.95 -17.4 -45.05 -17.4 -40.15 -13.95 -36.7 -10.5 -33.25 -5.6 -33.25 -0.7 -33.25 2.75 -36.7 6.2 -40.15 6.2 -45.05 6.2 -49.95 2.75 -53.4"/></g><g xmlns="http://www.w3.org/2000/svg" id=":m5-256" bounds="-49,-51,99,103"><path stroke="none" fill="rgb(244,244,244)" d="M-27.3 24.15 L-29.4 22.75 -30.05 22.15 -30.5 21.75 Q-34.9 17.35 -34.9 11.15 L-34.9 -33.85 Q-34.9 -35.65 -34.5 -37.35 -33.6 -41.35 -30.5 -44.45 -26.1 -48.85 -19.9 -48.85 -9.55 -47.3 0.8 -47.15 33.15 -40.7 31.65 21.9 27.3 24.95 19.45 26.1 L0.9 27.55 0 27.55 -0.9 27.55 -19.45 26.1 Q-23.95 25.45 -27.3 24.15 Z"/><path stroke="none" fill="rgb(216,216,216)" d="M37.6 -38.8 L42.7 -26.6 42.7 22.3 Q42.7 28 39 32.15 L32.85 20.95 33.55 20.3 Q37.95 15.9 37.95 9.7 L37.95 -35.3 37.6 -38.8 M-43.4 43.6 L-43.9 43.1 Q-48.3 38.7 -48.3 32.5 L-48.3 -11.7 -48.25 -12 -48.2 -12.65 -47.35 -15.55 -37.55 -38.8 Q-37.95 -37.1 -37.95 -35.3 L-37.95 9.7 Q-37.95 15.9 -33.55 20.3 L-33.1 20.7 -43.4 43.6"/><path stroke="none" fill="rgb(255,255,255)" d="M-37.55 -38.8 Q-36.65 -42.8 -33.55 -45.9 -29.15 -50.3 -22.95 -50.3 -11.9 -48.65 -0.9 -48.6 L0 -48.6 0.15 -48.6 0.9 -48.6 5.35 -48.7 22.95 -50.3 23.45 -50.3 Q29.35 -50.1 33.55 -45.9 36.65 -42.8 37.6 -38.8 L37.95 -35.3 37.95 9.7 Q37.95 15.9 33.55 20.3 L32.85 20.95 31.65 21.9 Q33.15 -40.7 0.8 -47.15 -9.55 -47.3 -19.9 -48.85 -26.1 -48.85 -30.5 -44.45 -33.6 -41.35 -34.5 -37.35 -34.9 -35.65 -34.9 -33.85 L-34.9 11.15 Q-34.9 17.35 -30.5 21.75 L-30.05 22.15 -29.4 22.75 -27.3 24.15 -29.4 23.25 Q-31.55 22.15 -33.1 20.7 L-33.55 20.3 Q-37.95 15.9 -37.95 9.7 L-37.95 -35.3 Q-37.95 -37.1 -37.55 -38.8"/><path stroke="none" fill="rgb(188,188,188)" d="M42.7 -26.6 L47.35 -15.55 48.2 -12.65 48.3 -12 48.3 -11.7 48.3 32.5 Q48.3 38.2 44.6 42.35 L43.9 43.1 41.9 44.8 Q37.5 47.8 29.8 48.9 L11.25 50.35 -11.25 50.35 -29.8 48.9 Q-39 47.6 -43.4 43.6 L-33.1 20.7 Q-31.55 22.15 -29.4 23.25 L-27.3 24.15 Q-23.95 25.45 -19.45 26.1 L-0.9 27.55 0 27.55 0.9 27.55 19.45 26.1 Q27.3 24.95 31.65 21.9 L32.85 20.95 39 32.15 Q42.7 28 42.7 22.3 L42.7 -26.6"/><path fill="none" stroke="rgb(102,102,102)" stroke-width="2" stroke-linecap="round" stroke-linejoin="round" d="M-37.55 -38.8 Q-36.65 -42.8 -33.55 -45.9 -29.15 -50.3 -22.95 -50.3 -11.9 -48.65 -0.9 -48.6 L0 -48.6 0.15 -48.6 0.9 -48.6 5.35 -48.7 22.95 -50.3 23.45 -50.3 Q29.35 -50.1 33.55 -45.9 36.65 -42.8 37.6 -38.8 L42.7 -26.6 47.35 -15.55 48.2 -12.65 48.3 -12 48.3 -11.7 48.3 32.5 Q48.3 38.2 44.6 42.35 L43.9 43.1 41.9 44.8 Q37.5 47.8 29.8 48.9 L11.25 50.35 -11.25 50.35 -29.8 48.9 Q-39 47.6 -43.4 43.6 L-43.9 43.1 Q-48.3 38.7 -48.3 32.5 L-48.3 -11.7 -48.25 -12 -48.2 -12.65 -47.35 -15.55 -37.55 -38.8 Q-37.95 -37.1 -37.95 -35.3 M37.95 -35.3 L37.6 -38.8"/><path fill="none" stroke="rgb(162,162,162)" stroke-width="2" stroke-linecap="round" stroke-linejoin="round" d="M-37.95 -35.3 L-37.95 9.7 Q-37.95 15.9 -33.55 20.3 L-33.1 20.7 Q-31.55 22.15 -29.4 23.25 L-27.3 24.15 M31.65 21.9 L32.85 20.95 33.55 20.3 Q37.95 15.9 37.95 9.7 L37.95 -35.3 M31.65 21.9 Q27.3 24.95 19.45 26.1 L0.9 27.55 0 27.55 -0.9 27.55 -19.45 26.1 Q-23.95 25.45 -27.3 24.15"/></g><g xmlns="http://www.w3.org/2000/svg" id=":m26-256" bounds="59,12,27,42"><text x="0" y="51" font-family="&apos;Helvetica&apos;" font-size="55" fill="#000000" style="white-space:pre" transform="matrix(1 0 0 1 56.6 0)">0</text></g><g xmlns="http://www.w3.org/2000/svg" id=":m126-256" bounds="-35,-26,65,100"><path stroke="none" fill="rgb(0,0,0)" d="M10.25 -25.8 L10.8 -25.65 Q17 -23.9 21.9 -18.95 29.65 -11.2 29.65 -0.25 29.65 10.7 21.9 18.4 14.7 25.65 4.7 26.15 L5.35 29.65 Q6 35 5 40.65 L4.75 41.8 4.45 43.2 Q3.4 47.35 1.55 51.65 L0.45 54 -0.3 55.5 -1.05 56.85 Q-3.5 61.15 -6.55 64.5 L-7.3 65.3 -8.55 66.5 -11.95 69.3 Q-20.35 75.4 -27.2 72.45 -34.05 69.45 -35.3 59.1 L-35.45 57.65 -35.55 55.95 -35.55 54.95 Q-35.6 49.35 -33.75 43.35 L-33.4 42.2 -32.85 40.6 -31.5 37.2 Q-30.05 33.75 -28.25 30.8 L-26.8 28.6 Q-23 23.1 -18.05 19.5 L-15.85 18.05 Q-23.2 10.45 -23.2 -0.25 -23.2 -11.2 -15.5 -18.95 -13.2 -21.25 -10.6 -22.85 L-9 -23.8 Q-3.9 -26.7 3.25 -26.7 L8.85 -26.15 8.9 -26.1 10.25 -25.8 M12.5 -13.6 Q13.85 -13.6 14.8 -11.6 15.8 -9.55 15.8 -6.7 15.8 -3.85 14.8 -1.85 13.85 0.2 12.5 0.2 11.6 0.2 10.9 -0.65 L10.15 -1.85 Q9.2 -3.85 9.2 -6.7 9.2 -9.55 10.15 -11.6 L10.9 -12.75 Q11.6 -13.6 12.5 -13.6 M2.75 -1.05 Q1.7 1 0.2 1 -0.7 1 -1.4 0.3 L-2.35 -1.05 Q-3.4 -3.05 -3.4 -5.9 -3.4 -8.75 -2.35 -10.8 L-1.4 -12.1 Q-0.7 -12.8 0.2 -12.8 1.7 -12.8 2.75 -10.8 3.8 -8.75 3.8 -5.9 3.8 -3.05 2.75 -1.05 M13.6 9 Q-4 22.55 -11.4 2.8 -2.95 16.75 13.6 9 M-10.3 64.6 L-9.25 63.65 Q-5.85 60.4 -3.2 55.95 -19.4 54.1 -31.6 44.25 -33.3 50.25 -32.9 55.85 L-32.8 56.9 Q-21.9 63.9 -10.3 64.6 M-12.35 66.2 L-11.45 65.55 Q-24.4 64.8 -32.55 58.6 -31.2 66.55 -25.65 68.95 -19.7 71.55 -12.35 66.2 M-30.75 41.45 L-31.25 43.05 -30.75 43.25 Q-18.1 52.6 -2.55 54.8 L-1.65 53.15 -0.55 50.75 Q1.3 46.45 2.2 42.35 -13.9 41.75 -26 31.65 -27.9 34.6 -29.45 38.2 L-30.75 41.45 M2.75 31.6 Q2.4 28.85 1.6 26.7 L1.4 26.1 Q-7.05 25.6 -13.45 20.25 L-14.05 20.55 Q-15.8 21.35 -17.65 22.7 -21.45 25.45 -24.5 29.5 L-25.15 30.45 -24.5 30.7 Q-12.9 39.6 2.45 40.95 L2.65 39.8 Q3.2 35.55 2.75 31.6 M27.6 -0.25 Q27.6 -10.1 20.45 -17.1 13.3 -24.05 3.25 -24 -6.9 -24.05 -14.05 -17.1 -21.15 -10.1 -21.15 -0.25 -21.15 9.6 -14.05 16.6 L-13.7 16.9 -11.4 18.85 -10.65 19.4 Q-5.95 22.65 -0.15 23.35 L0.85 23.45 3.25 23.55 3.85 23.55 Q13.55 23.35 20.45 16.6 27.6 9.6 27.6 -0.25"/><path stroke="none" fill="rgb(102,102,102)" d="M27.6 -0.25 Q27.6 9.6 20.45 16.6 13.55 23.35 3.85 23.55 L3.25 23.55 0.85 23.45 -0.15 23.35 Q-5.95 22.65 -10.65 19.4 L-11.4 18.85 -13.7 16.9 -14.05 16.6 Q-21.15 9.6 -21.15 -0.25 -21.15 -10.1 -14.05 -17.1 -6.9 -24.05 3.25 -24 13.3 -24.05 20.45 -17.1 27.6 -10.1 27.6 -0.25 M2.75 -1.05 Q3.8 -3.05 3.8 -5.9 3.8 -8.75 2.75 -10.8 1.7 -12.8 0.2 -12.8 -0.7 -12.8 -1.4 -12.1 L-2.35 -10.8 Q-3.4 -8.75 -3.4 -5.9 -3.4 -3.05 -2.35 -1.05 L-1.4 0.3 Q-0.7 1 0.2 1 1.7 1 2.75 -1.05 M12.5 -13.6 Q11.6 -13.6 10.9 -12.75 L10.15 -11.6 Q9.2 -9.55 9.2 -6.7 9.2 -3.85 10.15 -1.85 L10.9 -0.65 Q11.6 0.2 12.5 0.2 13.85 0.2 14.8 -1.85 15.8 -3.85 15.8 -6.7 15.8 -9.55 14.8 -11.6 13.85 -13.6 12.5 -13.6 M2.75 31.6 Q3.2 35.55 2.65 39.8 L2.45 40.95 Q-12.9 39.6 -24.5 30.7 L-25.15 30.45 -24.5 29.5 Q-21.45 25.45 -17.65 22.7 -15.8 21.35 -14.05 20.55 L-13.45 20.25 Q-7.05 25.6 1.4 26.1 L1.6 26.7 Q2.4 28.85 2.75 31.6 M-30.75 41.45 L-29.45 38.2 Q-27.9 34.6 -26 31.65 -13.9 41.75 2.2 42.35 1.3 46.45 -0.55 50.75 L-1.65 53.15 -2.55 54.8 Q-18.1 52.6 -30.75 43.25 L-31.25 43.05 -30.75 41.45 M-12.35 66.2 Q-19.7 71.55 -25.65 68.95 -31.2 66.55 -32.55 58.6 -24.4 64.8 -11.45 65.55 L-12.35 66.2 M-10.3 64.6 Q-21.9 63.9 -32.8 56.9 L-32.9 55.85 Q-33.3 50.25 -31.6 44.25 -19.4 54.1 -3.2 55.95 -5.85 60.4 -9.25 63.65 L-10.3 64.6 M13.6 9 Q-2.95 16.75 -11.4 2.8 -4 22.55 13.6 9"/></g><g xmlns="http://www.w3.org/2000/svg" id=":m127-256" bounds="-7,-25,15,51"><path stroke="none" fill="rgb(0,0,0)" d="M5.6 -21.7 Q4.9 -22.8 3.95 -22.75 3 -22.8 2.3 -21.7 1.6 -20.6 1.6 -19.05 1.6 -17.55 2.3 -16.45 3 -15.35 3.95 -15.35 4.9 -15.35 5.6 -16.45 6.3 -17.55 6.3 -19.05 6.3 -20.6 5.6 -21.7 M6.65 -23.5 Q7.8 -21.65 7.8 -19.1 7.8 -16.55 6.65 -14.75 5.5 -12.9 3.9 -12.9 2.3 -12.9 1.15 -14.75 0.55 -15.7 0.3 -16.8 -4.9 -14.5 -5.6 -9.9 -8.5 3.6 -1 24.3 L-2.6 25.25 Q-10 3.1 -7 -10.9 -6.25 -15.95 0.05 -18.25 L0 -19.1 Q0 -21.65 1.15 -23.5 2.3 -25.3 3.9 -25.3 5.5 -25.3 6.65 -23.5"/><path stroke="none" fill="rgb(147,57,55)" d="M5.6 -21.7 Q6.3 -20.6 6.3 -19.05 6.3 -17.55 5.6 -16.45 4.9 -15.35 3.95 -15.35 3 -15.35 2.3 -16.45 1.6 -17.55 1.6 -19.05 1.6 -20.6 2.3 -21.7 3 -22.8 3.95 -22.75 4.9 -22.8 5.6 -21.7"/></g><g xmlns="http://www.w3.org/2000/svg" id=":m130-256" bounds="-13,-21,27,43"><path stroke="none" fill="rgb(0,0,0)" d="M13.05 -18.55 Q13.75 -16.25 13.05 -13.55 12.3 -10.85 10.6 -9.25 8.85 -7.6 7.15 -8.05 5.4 -8.55 4.75 -10.8 4.1 -12.8 4.6 -15.1 0.1 -13.85 -2.4 -9.6 -12.6 6 -11.95 21.3 L-13.3 21 Q-14.4 5.15 -3.8 -11.1 -0.75 -16.25 5.15 -17.05 5.9 -18.9 7.2 -20.1 8.55 -21.35 9.9 -21.35 L10.65 -21.25 Q12.35 -20.8 13.05 -18.55 M11.45 -16.9 Q11 -18.25 9.95 -18.55 8.95 -18.8 7.95 -17.85 6.95 -16.95 6.5 -15.55 L6.45 -15.25 Q6 -13.65 6.45 -12.3 6.85 -10.95 7.85 -10.65 8.85 -10.4 9.95 -11.35 10.95 -12.3 11.4 -13.9 11.85 -15.55 11.45 -16.9"/><path stroke="none" fill="rgb(147,57,55)" d="M11.45 -16.9 Q11.85 -15.55 11.4 -13.9 10.95 -12.3 9.95 -11.35 8.85 -10.4 7.85 -10.65 6.85 -10.95 6.45 -12.3 6 -13.65 6.45 -15.25 L6.5 -15.55 Q6.95 -16.95 7.95 -17.85 8.95 -18.8 9.95 -18.55 11 -18.25 11.45 -16.9"/></g><g xmlns="http://www.w3.org/2000/svg" id=":m27-256" bounds="67,7,9,39"><text x="0" y="36" font-family="&apos;Helvetica&apos;" font-size="39" fill="#000000" style="white-space:pre" transform="matrix(1 0 0 1 65.4 0)">)</text></g><g xmlns="http://www.w3.org/2000/svg" id=":m28-256" bounds="66,33,13,7"><text x="0" y="51" font-family="&apos;Helvetica&apos;" font-size="55" fill="#000000" style="white-space:pre" transform="matrix(1 0 0 1 62.75 0)">-</text></g><g xmlns="http://www.w3.org/2000/svg" id=":m29-256" bounds="-24,-33,44,5"><path stroke="none" fill="rgb(0,0,0)" d="M19.45 -33.65 L19.45 -28.7 -24.8 -28.7 -24.8 -33.65 19.45 -33.65 Z"/></g><g xmlns="http://www.w3.org/2000/svg" id=":m119-256" bounds="2,9,361,40"><text x="0" y="40" font-family="&apos;Century Gothic Bold&apos;" font-size="40" font-weight="bold" fill="#000000" style="white-space:pre">cuatro mariposas</text></g><g xmlns="http://www.w3.org/2000/svg" id=":m123-256" bounds="2,9,352,39"><text x="0" y="39" font-family="&apos;Century Gothic Bold&apos;" font-size="39" font-weight="bold" fill="#000000" style="white-space:pre">cuatro mariposas</text></g><g xmlns="http://www.w3.org/2000/svg" id=":m30-256" bounds="59,29,27,17"><text x="0" y="51" font-family="&apos;Helvetica&apos;" font-size="55" fill="#000000" style="white-space:pre" transform="matrix(1 0 0 1 55.85 0)">=</text></g><g xmlns="http://www.w3.org/2000/svg" id=":m31-256" bounds="63,16,19,22"><text x="0" y="36" font-family="&apos;Helvetica&apos;" font-size="39" fill="#000000" style="white-space:pre" transform="matrix(1 0 0 1 60.5 0)">+</text></g><g xmlns="http://www.w3.org/2000/svg" id=":m120-256" bounds="-281,-176,563,353"><path stroke="none" fill="rgb(102,102,102)" d="M79.75 -154.1 Q338.35 -209.15 264.95 -21.1 248.9 25.25 267.45 109.25 285.95 193.2 132.75 167.85 -20.5 142.5 -156.65 170 -292.8 197.5 -273.1 102.05 -253.4 6.55 -266.5 -28.35 -343.5 -233.4 -16.25 -153.85 33.5 -145 79.75 -154.1 M78.15 -150.95 Q32.8 -142.05 -15.95 -150.7 -336.65 -228.7 -261.2 -27.75 -248.4 6.45 -267.65 100.05 -287 193.55 -153.55 166.65 -20.1 139.7 130.05 164.55 280.2 189.35 262.05 107.1 243.9 24.8 259.65 -20.65 331.55 -204.95 78.15 -150.95"/></g><g xmlns="http://www.w3.org/2000/svg" id=":m33-256" bounds="18,8,111,31"><text x="0" y="37" font-family="&apos;Helvetica&apos;" font-size="40" fill="#000000" style="white-space:pre" transform="matrix(1 0 0 1 14.15 0)">Delete</text></g><g xmlns="http://www.w3.org/2000/svg" id=":m122-256" bounds="-30,-7,61,15"><path stroke="none" fill="rgb(217,206,196)" d="M30.6 7.75 L-30.65 7.75 -30.65 -7.8 30.6 -7.8 30.6 7.75 Z"/></g><g xmlns="http://www.w3.org/2000/svg" id=":m35-256" bounds="41,8,62,31"><text x="0" y="37" font-family="&apos;Helvetica&apos;" font-size="40" fill="#000000" style="white-space:pre" transform="matrix(1 0 0 1 39.9 0)">Tab</text></g><g xmlns="http://www.w3.org/2000/svg" id=":m36-256" bounds="53,10,39,46"><text x="0" y="51" font-family="&apos;Helvetica&apos;" font-size="55" fill="#000000" style="white-space:pre" transform="matrix(1 0 0 1 50.5 0)">Q</text></g><g xmlns="http://www.w3.org/2000/svg" id=":m37-256" bounds="47,11,51,42"><text x="0" y="51" font-family="&apos;Helvetica&apos;" font-size="55" fill="#000000" style="white-space:pre" transform="matrix(1 0 0 1 45.95 0)">W</text></g><g xmlns="http://www.w3.org/2000/svg" id=":m38-256" bounds="59,11,29,42"><text x="0" y="51" font-family="&apos;Helvetica&apos;" font-size="55" fill="#000000" style="white-space:pre" transform="matrix(1 0 0 1 53.55 0)">E</text></g><g xmlns="http://www.w3.org/2000/svg" id=":m39-256" bounds="57,11,33,42"><text x="0" y="51" font-family="&apos;Helvetica&apos;" font-size="55" fill="#000000" style="white-space:pre" transform="matrix(1 0 0 1 52.05 0)">R</text></g><g xmlns="http://www.w3.org/2000/svg" id=":m40-256" bounds="56,11,33,42"><text x="0" y="51" font-family="&apos;Helvetica&apos;" font-size="55" fill="#000000" style="white-space:pre" transform="matrix(1 0 0 1 55.1 0)">T</text></g><g xmlns="http://www.w3.org/2000/svg" id=":m41-256" bounds="55,11,35,42"><text x="0" y="51" font-family="&apos;Helvetica&apos;" font-size="55" fill="#000000" style="white-space:pre" transform="matrix(1 0 0 1 53.55 0)">Y</text></g><g xmlns="http://www.w3.org/2000/svg" id=":m42-256" bounds="57,11,31,43"><text x="0" y="51" font-family="&apos;Helvetica&apos;" font-size="55" fill="#000000" style="white-space:pre" transform="matrix(1 0 0 1 52.05 0)">U</text></g><g xmlns="http://www.w3.org/2000/svg" id=":m43-256" bounds="70,11,5,42"><text x="0" y="51" font-family="&apos;Helvetica&apos;" font-size="55" fill="#000000" style="white-space:pre" transform="matrix(1 0 0 1 64.25 0)">I</text></g><g xmlns="http://www.w3.org/2000/svg" id=":m44-256" bounds="53,10,39,44"><text x="0" y="51" font-family="&apos;Helvetica&apos;" font-size="55" fill="#000000" style="white-space:pre" transform="matrix(1 0 0 1 50.5 0)">O</text></g><g xmlns="http://www.w3.org/2000/svg" id=":m45-256" bounds="59,11,29,42"><text x="0" y="51" font-family="&apos;Helvetica&apos;" font-size="55" fill="#000000" style="white-space:pre" transform="matrix(1 0 0 1 53.55 0)">P</text></g><g xmlns="http://www.w3.org/2000/svg" id=":m46-256" bounds="69,8,8,39"><text x="0" y="37" font-family="&apos;Helvetica&apos;" font-size="40" fill="#000000" style="white-space:pre" transform="matrix(1 0 0 1 66.35 0)">[</text></g><g xmlns="http://www.w3.org/2000/svg" id=":m47-256" bounds="68,6,26,35"><text x="0" y="33" font-family="&apos;KabaleMedium Normal&apos;" font-size="36" fill="#000000" style="white-space:pre" transform="matrix(1 0 0 1 65.9 0)">{</text></g><g xmlns="http://www.w3.org/2000/svg" id=":m48-256" bounds="68,8,8,39"><text x="0" y="37" font-family="&apos;Helvetica&apos;" font-size="40" fill="#000000" style="white-space:pre" transform="matrix(1 0 0 1 66.35 0)">]</text></g><g xmlns="http://www.w3.org/2000/svg" id=":m49-256" bounds="68,6,26,35"><text x="0" y="33" font-family="&apos;KabaleMedium Normal&apos;" font-size="36" fill="#000000" style="white-space:pre" transform="matrix(1 0 0 1 65.9 0)">}</text></g><g xmlns="http://www.w3.org/2000/svg" id=":m50-256" bounds="66,7,13,32"><text x="0" y="37" font-family="&apos;Helvetica&apos;" font-size="40" fill="#000000" style="white-space:pre" transform="matrix(1 0 0 1 66.35 0)">\</text></g><g xmlns="http://www.w3.org/2000/svg" id=":m51-256" bounds="-51,-44,2,29"><path stroke="none" fill="rgb(0,0,0)" d="M-49.3 -27.8 L-49.3 -15.95 -51.9 -15.95 -51.9 -27.8 -49.3 -27.8 M-49.3 -32.75 L-51.9 -32.75 -51.9 -44.6 -49.3 -44.6 -49.3 -32.75"/></g><g xmlns="http://www.w3.org/2000/svg" id=":m32-256" bounds="-49,-51,172,103"><path stroke="none" fill="rgb(216,216,216)" d="M71.8 -48.6 L72 -48.6 72.9 -48.6 73.05 -48.6 73.8 -48.6 78.25 -48.7 95.85 -50.3 96.35 -50.3 Q102.25 -50.1 106.45 -45.9 109.55 -42.8 110.5 -38.8 L110.85 -35.3 110.85 9.7 Q110.85 15.9 106.45 20.3 L105.75 20.95 104.55 21.9 Q106.05 -40.7 73.7 -47.15 L71.8 -47.2 Q-10.5 -47.45 -19.9 -48.85 -26.1 -48.85 -30.5 -44.45 -33.6 -41.35 -34.5 -37.35 -34.9 -35.65 -34.9 -33.85 L-34.9 11.15 Q-34.9 17.35 -30.5 21.75 L-30.05 22.15 -29.4 22.75 -27.3 24.15 -29.4 23.25 Q-31.55 22.15 -33.1 20.7 L-33.55 20.3 Q-37.95 15.9 -37.95 9.7 L-37.95 -35.3 Q-37.95 -37.1 -37.55 -38.8 -36.65 -42.8 -33.55 -45.9 -29.15 -50.3 -22.95 -50.3 -12 -48.65 71.8 -48.6 Z"/><path stroke="none" fill="rgb(180,180,180)" d="M115.6 -26.6 L120.25 -15.55 121.1 -12.65 121.2 -12 121.2 -11.7 121.2 32.5 Q121.2 38.2 117.5 42.35 L116.8 43.1 114.8 44.8 Q110.4 47.8 102.7 48.9 L84.15 50.35 -11.25 50.35 -29.8 48.9 Q-39 47.6 -43.4 43.6 L-33.1 20.7 Q-31.55 22.15 -29.4 23.25 L-27.3 24.15 Q-23.95 25.45 -19.45 26.1 -10.7 27.3 71.8 27.55 L72 27.55 72.9 27.55 73.8 27.55 92.35 26.1 Q100.2 24.95 104.55 21.9 L105.75 20.95 111.9 32.15 Q115.6 28 115.6 22.3 L115.6 -26.6 Z"/><path stroke="none" fill="rgb(205,205,205)" d="M115.6 -26.6 L115.6 22.3 Q115.6 28 111.9 32.15 L105.75 20.95 106.45 20.3 Q110.85 15.9 110.85 9.7 L110.85 -35.3 110.5 -38.8 115.6 -26.6 M-43.4 43.6 L-43.9 43.1 Q-48.3 38.7 -48.3 32.5 L-48.3 -11.7 -48.25 -12 -48.2 -12.65 -47.35 -15.55 -37.55 -38.8 Q-37.95 -37.1 -37.95 -35.3 L-37.95 9.7 Q-37.95 15.9 -33.55 20.3 L-33.1 20.7 -43.4 43.6 M-27.3 24.15 L-29.4 22.75 -30.05 22.15 -30.5 21.75 Q-34.9 17.35 -34.9 11.15 L-34.9 -33.85 Q-34.9 -35.65 -34.5 -37.35 -33.6 -41.35 -30.5 -44.45 -26.1 -48.85 -19.9 -48.85 -10.5 -47.45 71.8 -47.2 L73.7 -47.15 Q106.05 -40.7 104.55 21.9 100.2 24.95 92.35 26.1 L73.8 27.55 72.9 27.55 72 27.55 71.8 27.55 Q-10.7 27.3 -19.45 26.1 -23.95 25.45 -27.3 24.15"/><path fill="none" stroke="rgb(102,102,102)" stroke-width="2" stroke-linecap="round" stroke-linejoin="round" d="M71.8 -48.6 L72 -48.6 72.9 -48.6 73.05 -48.6 73.8 -48.6 78.25 -48.7 95.85 -50.3 96.35 -50.3 Q102.25 -50.1 106.45 -45.9 109.55 -42.8 110.5 -38.8 L115.6 -26.6 120.25 -15.55 121.1 -12.65 121.2 -12 121.2 -11.7 121.2 32.5 Q121.2 38.2 117.5 42.35 L116.8 43.1 114.8 44.8 Q110.4 47.8 102.7 48.9 L84.15 50.35 -11.25 50.35 -29.8 48.9 Q-39 47.6 -43.4 43.6 L-43.9 43.1 Q-48.3 38.7 -48.3 32.5 L-48.3 -11.7 -48.25 -12 -48.2 -12.65 -47.35 -15.55 -37.55 -38.8 Q-36.65 -42.8 -33.55 -45.9 -29.15 -50.3 -22.95 -50.3 -12 -48.65 71.8 -48.6 M110.85 -35.3 L110.5 -38.8 M-37.95 -35.3 Q-37.95 -37.1 -37.55 -38.8"/><path fill="none" stroke="rgb(162,162,162)" stroke-width="2" stroke-linecap="round" stroke-linejoin="round" d="M-27.3 24.15 Q-23.95 25.45 -19.45 26.1 -10.7 27.3 71.8 27.55 L72 27.55 72.9 27.55 73.8 27.55 92.35 26.1 Q100.2 24.95 104.55 21.9 L105.75 20.95 106.45 20.3 Q110.85 15.9 110.85 9.7 L110.85 -35.3 M-37.95 -35.3 L-37.95 9.7 Q-37.95 15.9 -33.55 20.3 L-33.1 20.7 Q-31.55 22.15 -29.4 23.25 L-27.3 24.15"/></g><g xmlns="http://www.w3.org/2000/svg" id=":m52-256" bounds="8,5,130,28"><text x="0" y="26" font-family="&apos;Helvetica&apos;" font-size="28" fill="#000000" style="white-space:pre" transform="matrix(1 0 0 1 6.1 0)">Caps Lock</text></g><g xmlns="http://www.w3.org/2000/svg" id=":m53-256" bounds="55,11,35,42"><text x="0" y="51" font-family="&apos;Helvetica&apos;" font-size="55" fill="#000000" style="white-space:pre" transform="matrix(1 0 0 1 53.55 0)">A</text></g><g xmlns="http://www.w3.org/2000/svg" id=":m54-256" bounds="57,10,31,44"><text x="0" y="51" font-family="&apos;Helvetica&apos;" font-size="55" fill="#000000" style="white-space:pre" transform="matrix(1 0 0 1 53.55 0)">S</text></g><g xmlns="http://www.w3.org/2000/svg" id=":m55-256" bounds="57,11,33,42"><text x="0" y="51" font-family="&apos;Helvetica&apos;" font-size="55" fill="#000000" style="white-space:pre" transform="matrix(1 0 0 1 52.05 0)">D</text></g><g xmlns="http://www.w3.org/2000/svg" id=":m56-256" bounds="60,11,28,42"><text x="0" y="51" font-family="&apos;Helvetica&apos;" font-size="55" fill="#000000" style="white-space:pre" transform="matrix(1 0 0 1 55.1 0)">F</text></g><g xmlns="http://www.w3.org/2000/svg" id=":m58-256" bounds="54,10,36,44"><text x="0" y="51" font-family="&apos;Helvetica&apos;" font-size="55" fill="#000000" style="white-space:pre" transform="matrix(1 0 0 1 50.5 0)">G</text></g><g xmlns="http://www.w3.org/2000/svg" id=":m59-256" bounds="57,11,31,42"><text x="0" y="51" font-family="&apos;Helvetica&apos;" font-size="55" fill="#000000" style="white-space:pre" transform="matrix(1 0 0 1 52.05 0)">H</text></g><g xmlns="http://www.w3.org/2000/svg" id=":m60-256" bounds="60,11,22,43"><text x="0" y="51" font-family="&apos;Helvetica&apos;" font-size="55" fill="#000000" style="white-space:pre" transform="matrix(1 0 0 1 58.15 0)">J</text></g><g xmlns="http://www.w3.org/2000/svg" id=":m57-256" bounds="-19,13,39,11"><path stroke="none" fill="rgb(255,255,255)" d="M-18.4 17.45 Q-18.2 16.15 -17.3 15.2 -16 14 -14.25 14 L14 14 Q15.75 14 16.95 15.2 17.95 16.15 18.2 17.45 L18.25 18.25 Q18.25 20 16.95 21.2 L16.2 21.85 Q15.45 19.6 14.45 18.65 13.3 17.5 11.6 17.45 L-18.4 17.45 Z"/><path stroke="none" fill="rgb(188,188,188)" d="M-18.4 17.45 L11.6 17.45 Q13.3 17.5 14.45 18.65 15.45 19.6 16.2 21.85 15.25 22.45 14 22.45 L-14.25 22.45 Q-16 22.45 -17.3 21.2 -18.5 20 -18.5 18.25 L-18.4 17.45 Z"/><path fill="none" stroke="rgb(162,162,162)" stroke-width="2" stroke-linecap="round" stroke-linejoin="round" d="M16.2 21.85 L16.95 21.2 Q18.25 20 18.25 18.25 L18.2 17.45 Q17.95 16.15 16.95 15.2 15.75 14 14 14 L-14.25 14 Q-16 14 -17.3 15.2 -18.2 16.15 -18.4 17.45 M16.2 21.85 Q15.25 22.45 14 22.45 L-14.25 22.45 Q-16 22.45 -17.3 21.2 -18.5 20 -18.5 18.25 L-18.4 17.45"/></g><g xmlns="http://www.w3.org/2000/svg" id=":m61-256" bounds="58,11,33,42"><text x="0" y="51" font-family="&apos;Helvetica&apos;" font-size="55" fill="#000000" style="white-space:pre" transform="matrix(1 0 0 1 53.55 0)">K</text></g><g xmlns="http://www.w3.org/2000/svg" id=":m62-256" bounds="61,11,26,42"><text x="0" y="51" font-family="&apos;Helvetica&apos;" font-size="55" fill="#000000" style="white-space:pre" transform="matrix(1 0 0 1 56.6 0)">L</text></g><g xmlns="http://www.w3.org/2000/svg" id=":m63-256" bounds="70,22,5,39"><text x="0" y="51" font-family="&apos;Helvetica&apos;" font-size="55" fill="#000000" style="white-space:pre" transform="matrix(1 0 0 1 64.25 0)">;</text></g><g xmlns="http://www.w3.org/2000/svg" id=":m64-256" bounds="70,16,4,22"><text x="0" y="36" font-family="&apos;Helvetica&apos;" font-size="39" fill="#000000" style="white-space:pre" transform="matrix(1 0 0 1 66.5 0)">:</text></g><g xmlns="http://www.w3.org/2000/svg" id=":m65-256" bounds="-27,-40,47,48"><path stroke="none" fill="rgb(0,0,0)" d="M19.4 -10.4 L16.35 7.65 14.25 7.65 11.2 -10.4 19.4 -10.4 Z"/><path stroke="none" fill="rgb(0,0,0)" d="M-25.25 -23.85 L-27.45 -40.25 -20.9 -40.25 -23.15 -23.85 -25.25 -23.85 M-13.8 -23.85 L-16 -40.25 -9.45 -40.25 -11.7 -23.85 -13.8 -23.85"/></g><g xmlns="http://www.w3.org/2000/svg" id=":m66-256" bounds="-152,-51,202,103"><path stroke="none" fill="rgb(216,216,216)" d="M0.6 -48.6 L0.9 -48.6 5.35 -48.7 22.95 -50.3 23.45 -50.3 Q29.35 -50.1 33.55 -45.9 36.65 -42.8 37.6 -38.8 L37.95 -35.3 37.95 9.7 Q37.95 15.9 33.55 20.3 L32.85 20.95 31.65 21.9 Q33.15 -40.7 0.8 -47.15 L0.6 -47.15 0.6 -48.6 M-140.25 -38.8 Q-139.35 -42.8 -136.25 -45.9 -131.85 -50.3 -125.65 -50.3 -114.6 -48.65 -103.6 -48.6 L-102.7 -48.6 -102.55 -48.6 -48.45 -48.35 -40.1 -48.35 -35.5 -48.3 -35.5 -47.9 0.6 -47.15 -35.5 -47.2 -35.5 -47.3 -53.7 -47.4 Q-115.7 -47.8 -122.6 -48.85 -128.8 -48.85 -133.2 -44.45 -136.3 -41.35 -137.2 -37.35 -137.6 -35.65 -137.6 -33.85 L-137.6 11.15 Q-137.6 17.35 -133.2 21.75 L-132.75 22.15 -132.1 22.75 -130 24.15 -132.1 23.25 Q-134.25 22.15 -135.8 20.7 L-136.25 20.3 Q-140.65 15.9 -140.65 9.7 L-140.65 -35.3 Q-140.65 -37.1 -140.25 -38.8"/><path stroke="none" fill="rgb(180,180,180)" d="M42.7 -26.6 L47.35 -15.55 48.2 -12.65 48.3 -12 48.3 -11.7 48.3 32.5 Q48.3 38.2 44.6 42.35 L43.9 43.1 41.9 44.8 Q37.5 47.8 29.8 48.9 L11.25 50.35 -113.95 50.35 -132.5 48.9 Q-141.7 47.6 -146.1 43.6 L-135.8 20.7 Q-134.25 22.15 -132.1 23.25 L-130 24.15 Q-126.65 25.45 -122.15 26.1 L-103.6 27.55 -102.7 27.55 -53.7 27.55 -35.5 27.55 0.6 27.55 0.9 27.55 19.45 26.1 Q27.3 24.95 31.65 21.9 L32.85 20.95 39 32.15 Q42.7 28 42.7 22.3 L42.7 -26.6"/><path stroke="none" fill="rgb(205,205,205)" d="M42.7 -26.6 L42.7 22.3 Q42.7 28 39 32.15 L32.85 20.95 33.55 20.3 Q37.95 15.9 37.95 9.7 L37.95 -35.3 37.6 -38.8 42.7 -26.6 M-146.1 43.6 L-146.6 43.1 Q-151 38.7 -151 32.5 L-151 -11.7 -150.95 -12 -150.9 -12.65 -150.05 -15.55 -140.25 -38.8 Q-140.65 -37.1 -140.65 -35.3 L-140.65 9.7 Q-140.65 15.9 -136.25 20.3 L-135.8 20.7 -146.1 43.6 M-130 24.15 L-132.1 22.75 -132.75 22.15 -133.2 21.75 Q-137.6 17.35 -137.6 11.15 L-137.6 -33.85 Q-137.6 -35.65 -137.2 -37.35 -136.3 -41.35 -133.2 -44.45 -128.8 -48.85 -122.6 -48.85 -115.7 -47.8 -53.7 -47.4 L-35.5 -47.3 -35.5 -47.2 0.6 -47.15 0.8 -47.15 Q33.15 -40.7 31.65 21.9 27.3 24.95 19.45 26.1 L0.9 27.55 0.6 27.55 -35.5 27.55 -53.7 27.55 -102.7 27.55 -103.6 27.55 -122.15 26.1 Q-126.65 25.45 -130 24.15"/><path fill="none" stroke="rgb(102,102,102)" stroke-width="2" stroke-linecap="round" stroke-linejoin="round" d="M0.6 -48.6 L0.9 -48.6 5.35 -48.7 22.95 -50.3 23.45 -50.3 Q29.35 -50.1 33.55 -45.9 36.65 -42.8 37.6 -38.8 L42.7 -26.6 47.35 -15.55 48.2 -12.65 48.3 -12 48.3 -11.7 48.3 32.5 Q48.3 38.2 44.6 42.35 L43.9 43.1 41.9 44.8 Q37.5 47.8 29.8 48.9 L11.25 50.35 -113.95 50.35 -132.5 48.9 Q-141.7 47.6 -146.1 43.6 L-146.6 43.1 Q-151 38.7 -151 32.5 L-151 -11.7 -150.95 -12 -150.9 -12.65 -150.05 -15.55 -140.25 -38.8 Q-139.35 -42.8 -136.25 -45.9 -131.85 -50.3 -125.65 -50.3 -114.6 -48.65 -103.6 -48.6 L-102.7 -48.6 -102.55 -48.6 -48.45 -48.35 -40.1 -48.35 0.6 -48.6 M37.6 -38.8 L37.95 -35.3 M-140.65 -35.3 Q-140.65 -37.1 -140.25 -38.8 M-35.5 -48.3 L-40.1 -48.35"/><path fill="none" stroke="rgb(162,162,162)" stroke-width="2" stroke-linecap="round" stroke-linejoin="round" d="M-130 24.15 Q-126.65 25.45 -122.15 26.1 L-103.6 27.55 -102.7 27.55 -53.7 27.55 -35.5 27.55 0.6 27.55 0.9 27.55 19.45 26.1 Q27.3 24.95 31.65 21.9 L32.85 20.95 M37.95 -35.3 L37.95 9.7 Q37.95 15.9 33.55 20.3 L32.85 20.95 M-140.65 -35.3 L-140.65 9.7 Q-140.65 15.9 -136.25 20.3 L-135.8 20.7 Q-134.25 22.15 -132.1 23.25 L-130 24.15"/></g><g xmlns="http://www.w3.org/2000/svg" id=":m67-256" bounds="16,8,114,31"><text x="0" y="37" font-family="&apos;Helvetica&apos;" font-size="40" fill="#000000" style="white-space:pre" transform="matrix(1 0 0 1 11.45 0)">Return</text></g><g xmlns="http://www.w3.org/2000/svg" id=":m68-256" bounds="-170,-51,220,103"><path stroke="none" fill="rgb(216,216,216)" d="M0.6 -48.6 L0.9 -48.6 5.35 -48.7 22.95 -50.3 23.45 -50.3 Q29.35 -50.1 33.55 -45.9 36.65 -42.8 37.6 -38.8 L37.95 -35.3 37.95 9.7 Q37.95 15.9 33.55 20.3 L32.85 20.95 31.65 21.9 Q33.15 -40.7 0.8 -47.15 L0.6 -47.15 0.6 -48.6 M-158.45 -38.8 Q-157.55 -42.8 -154.45 -45.9 -150.05 -50.3 -143.85 -50.3 -132.8 -48.65 -121.8 -48.6 L-120.9 -48.6 -120.75 -48.6 -52.4 -48.3 0.6 -47.15 Q-130.55 -47.3 -140.8 -48.85 -147 -48.85 -151.4 -44.45 -154.5 -41.35 -155.4 -37.35 -155.8 -35.65 -155.8 -33.85 L-155.8 11.15 Q-155.8 17.35 -151.4 21.75 L-150.95 22.15 -150.3 22.75 -148.2 24.15 -150.3 23.25 Q-152.45 22.15 -154 20.7 L-154.45 20.3 Q-158.85 15.9 -158.85 9.7 L-158.85 -35.3 Q-158.85 -37.1 -158.45 -38.8"/><path stroke="none" fill="rgb(180,180,180)" d="M42.7 -26.6 L47.35 -15.55 48.2 -12.65 48.3 -12 48.3 -11.7 48.3 32.5 Q48.3 38.2 44.6 42.35 L43.9 43.1 41.9 44.8 Q37.5 47.8 29.8 48.9 L11.25 50.35 -132.15 50.35 -150.7 48.9 Q-159.9 47.6 -164.3 43.6 L-154 20.7 Q-152.45 22.15 -150.3 23.25 L-148.2 24.15 Q-144.85 25.45 -140.35 26.1 L-121.8 27.55 -120.9 27.55 0.6 27.55 0.9 27.55 19.45 26.1 Q27.3 24.95 31.65 21.9 L32.85 20.95 39 32.15 Q42.7 28 42.7 22.3 L42.7 -26.6"/><path stroke="none" fill="rgb(205,205,205)" d="M42.7 -26.6 L42.7 22.3 Q42.7 28 39 32.15 L32.85 20.95 33.55 20.3 Q37.95 15.9 37.95 9.7 L37.95 -35.3 37.6 -38.8 42.7 -26.6 M-164.3 43.6 L-164.8 43.1 Q-169.2 38.7 -169.2 32.5 L-169.2 -11.7 -169.15 -12 -169.1 -12.65 -168.25 -15.55 -158.45 -38.8 Q-158.85 -37.1 -158.85 -35.3 L-158.85 9.7 Q-158.85 15.9 -154.45 20.3 L-154 20.7 -164.3 43.6 M-148.2 24.15 L-150.3 22.75 -150.95 22.15 -151.4 21.75 Q-155.8 17.35 -155.8 11.15 L-155.8 -33.85 Q-155.8 -35.65 -155.4 -37.35 -154.5 -41.35 -151.4 -44.45 -147 -48.85 -140.8 -48.85 -130.55 -47.3 0.6 -47.15 L0.8 -47.15 Q33.15 -40.7 31.65 21.9 27.3 24.95 19.45 26.1 L0.9 27.55 0.6 27.55 -120.9 27.55 -121.8 27.55 -140.35 26.1 Q-144.85 25.45 -148.2 24.15"/><path fill="none" stroke="rgb(102,102,102)" stroke-width="2" stroke-linecap="round" stroke-linejoin="round" d="M0.6 -48.6 L0.9 -48.6 5.35 -48.7 22.95 -50.3 23.45 -50.3 Q29.35 -50.1 33.55 -45.9 36.65 -42.8 37.6 -38.8 L42.7 -26.6 47.35 -15.55 48.2 -12.65 48.3 -12 48.3 -11.7 48.3 32.5 Q48.3 38.2 44.6 42.35 L43.9 43.1 41.9 44.8 Q37.5 47.8 29.8 48.9 L11.25 50.35 -132.15 50.35 -150.7 48.9 Q-159.9 47.6 -164.3 43.6 L-164.8 43.1 Q-169.2 38.7 -169.2 32.5 L-169.2 -11.7 -169.15 -12 -169.1 -12.65 -168.25 -15.55 -158.45 -38.8 Q-157.55 -42.8 -154.45 -45.9 -150.05 -50.3 -143.85 -50.3 -132.8 -48.65 -121.8 -48.6 L-120.9 -48.6 -120.75 -48.6 -52.4 -48.3 0.6 -48.6 M37.6 -38.8 L37.95 -35.3 M-158.45 -38.8 Q-158.85 -37.1 -158.85 -35.3"/><path fill="none" stroke="rgb(162,162,162)" stroke-width="2" stroke-linecap="round" stroke-linejoin="round" d="M-158.85 -35.3 L-158.85 9.7 Q-158.85 15.9 -154.45 20.3 L-154 20.7 Q-152.45 22.15 -150.3 23.25 L-148.2 24.15 Q-144.85 25.45 -140.35 26.1 L-121.8 27.55 -120.9 27.55 0.6 27.55 0.9 27.55 19.45 26.1 Q27.3 24.95 31.65 21.9 L32.85 20.95 M37.95 -35.3 L37.95 9.7 Q37.95 15.9 33.55 20.3 L32.85 20.95"/></g><g xmlns="http://www.w3.org/2000/svg" id=":m70-256" bounds="57,11,31,42"><text x="0" y="51" font-family="&apos;Helvetica&apos;" font-size="55" fill="#000000" style="white-space:pre" transform="matrix(1 0 0 1 55.1 0)">Z</text></g><g xmlns="http://www.w3.org/2000/svg" id=":m71-256" bounds="55,11,35,42"><text x="0" y="51" font-family="&apos;Helvetica&apos;" font-size="55" fill="#000000" style="white-space:pre" transform="matrix(1 0 0 1 53.55 0)">X</text></g><g xmlns="http://www.w3.org/2000/svg" id=":m72-256" bounds="55,10,35,44"><text x="0" y="51" font-family="&apos;Helvetica&apos;" font-size="55" fill="#000000" style="white-space:pre" transform="matrix(1 0 0 1 52.05 0)">C</text></g><g xmlns="http://www.w3.org/2000/svg" id=":m73-256" bounds="55,11,35,42"><text x="0" y="51" font-family="&apos;Helvetica&apos;" font-size="55" fill="#000000" style="white-space:pre" transform="matrix(1 0 0 1 53.55 0)">V</text></g><g xmlns="http://www.w3.org/2000/svg" id=":m74-256" bounds="58,11,31,42"><text x="0" y="51" font-family="&apos;Helvetica&apos;" font-size="55" fill="#000000" style="white-space:pre" transform="matrix(1 0 0 1 53.55 0)">B</text></g><g xmlns="http://www.w3.org/2000/svg" id=":m75-256" bounds="57,11,31,42"><text x="0" y="51" font-family="&apos;Helvetica&apos;" font-size="55" fill="#000000" style="white-space:pre" transform="matrix(1 0 0 1 52.05 0)">N</text></g><g xmlns="http://www.w3.org/2000/svg" id=":m76-256" bounds="54,11,37,42"><text x="0" y="51" font-family="&apos;Helvetica&apos;" font-size="55" fill="#000000" style="white-space:pre" transform="matrix(1 0 0 1 49 0)">M</text></g><g xmlns="http://www.w3.org/2000/svg" id=":m77-256" bounds="70,45,5,16"><text x="0" y="51" font-family="&apos;Helvetica&apos;" font-size="55" fill="#000000" style="white-space:pre" transform="matrix(1 0 0 1 64.25 0)">,</text></g><g xmlns="http://www.w3.org/2000/svg" id=":m78-256" bounds="63,16,19,21"><text x="0" y="36" font-family="&apos;Helvetica&apos;" font-size="39" fill="#000000" style="white-space:pre" transform="matrix(1 0 0 1 60.5 0)">&lt;</text></g><g xmlns="http://www.w3.org/2000/svg" id=":m79-256" bounds="70,45,5,8"><text x="0" y="51" font-family="&apos;Helvetica&apos;" font-size="55" fill="#000000" style="white-space:pre" transform="matrix(1 0 0 1 64.25 0)">.</text></g><g xmlns="http://www.w3.org/2000/svg" id=":m80-256" bounds="63,16,19,21"><text x="0" y="36" font-family="&apos;Helvetica&apos;" font-size="39" fill="#000000" style="white-space:pre" transform="matrix(1 0 0 1 60.5 0)">&gt;</text></g><g xmlns="http://www.w3.org/2000/svg" id=":m81-256" bounds="64,10,17,44"><text x="0" y="51" font-family="&apos;Helvetica&apos;" font-size="55" fill="#000000" style="white-space:pre" transform="matrix(1 0 0 1 64.25 0)">/</text></g><g xmlns="http://www.w3.org/2000/svg" id=":m82-256" bounds="64,7,17,31"><text x="0" y="36" font-family="&apos;Helvetica&apos;" font-size="39" fill="#000000" style="white-space:pre" transform="matrix(1 0 0 1 61.05 0)">?</text></g><g xmlns="http://www.w3.org/2000/svg" id=":m83-256" bounds="-198,-51,248,103"><path stroke="none" fill="rgb(216,216,216)" d="M0.6 -48.6 L0.9 -48.6 5.35 -48.7 22.95 -50.3 23.45 -50.3 Q29.35 -50.1 33.55 -45.9 36.65 -42.8 37.6 -38.8 L37.95 -35.3 37.95 9.7 Q37.95 15.9 33.55 20.3 L32.85 20.95 31.65 21.9 Q33.15 -40.7 0.8 -47.15 L0.6 -47.15 0.6 -48.6 M-186.45 -38.8 Q-185.55 -42.8 -182.45 -45.9 -178.05 -50.3 -171.85 -50.3 -160.8 -48.65 -149.8 -48.6 L-148.9 -48.6 -148.75 -48.6 -66.7 -48.35 -52.4 -48.3 0.6 -47.15 -66.7 -47.35 Q-161.6 -47.8 -168.8 -48.85 -175 -48.85 -179.4 -44.45 -182.5 -41.35 -183.4 -37.35 -183.8 -35.65 -183.8 -33.85 L-183.8 11.15 Q-183.8 17.35 -179.4 21.75 L-178.95 22.15 -178.3 22.75 -176.2 24.15 -178.3 23.25 Q-180.45 22.15 -182 20.7 L-182.45 20.3 Q-186.85 15.9 -186.85 9.7 L-186.85 -35.3 Q-186.85 -37.1 -186.45 -38.8"/><path stroke="none" fill="rgb(180,180,180)" d="M42.7 -26.6 L47.35 -15.55 48.2 -12.65 48.3 -12 48.3 -11.7 48.3 32.5 Q48.3 38.2 44.6 42.35 L43.9 43.1 41.9 44.8 Q37.5 47.8 29.8 48.9 L11.25 50.35 -160.15 50.35 -178.7 48.9 Q-187.9 47.6 -192.3 43.6 L-182 20.7 Q-180.45 22.15 -178.3 23.25 L-176.2 24.15 Q-172.85 25.45 -168.35 26.1 L-149.8 27.55 -148.9 27.55 -66.7 27.55 0.6 27.55 0.9 27.55 19.45 26.1 Q27.3 24.95 31.65 21.9 L32.85 20.95 39 32.15 Q42.7 28 42.7 22.3 L42.7 -26.6"/><path stroke="none" fill="rgb(205,205,205)" d="M42.7 -26.6 L42.7 22.3 Q42.7 28 39 32.15 L32.85 20.95 33.55 20.3 Q37.95 15.9 37.95 9.7 L37.95 -35.3 37.6 -38.8 42.7 -26.6 M-192.3 43.6 L-192.8 43.1 Q-197.2 38.7 -197.2 32.5 L-197.2 -11.7 -197.15 -12 -197.1 -12.65 -196.25 -15.55 -186.45 -38.8 Q-186.85 -37.1 -186.85 -35.3 L-186.85 9.7 Q-186.85 15.9 -182.45 20.3 L-182 20.7 -192.3 43.6 M-176.2 24.15 L-178.3 22.75 -178.95 22.15 -179.4 21.75 Q-183.8 17.35 -183.8 11.15 L-183.8 -33.85 Q-183.8 -35.65 -183.4 -37.35 -182.5 -41.35 -179.4 -44.45 -175 -48.85 -168.8 -48.85 -161.6 -47.8 -66.7 -47.35 L0.6 -47.15 0.8 -47.15 Q33.15 -40.7 31.65 21.9 27.3 24.95 19.45 26.1 L0.9 27.55 0.6 27.55 -66.7 27.55 -148.9 27.55 -149.8 27.55 -168.35 26.1 Q-172.85 25.45 -176.2 24.15"/><path fill="none" stroke="rgb(102,102,102)" stroke-width="2" stroke-linecap="round" stroke-linejoin="round" d="M0.6 -48.6 L0.9 -48.6 5.35 -48.7 22.95 -50.3 23.45 -50.3 Q29.35 -50.1 33.55 -45.9 36.65 -42.8 37.6 -38.8 L42.7 -26.6 47.35 -15.55 48.2 -12.65 48.3 -12 48.3 -11.7 48.3 32.5 Q48.3 38.2 44.6 42.35 L43.9 43.1 41.9 44.8 Q37.5 47.8 29.8 48.9 L11.25 50.35 -160.15 50.35 -178.7 48.9 Q-187.9 47.6 -192.3 43.6 L-192.8 43.1 Q-197.2 38.7 -197.2 32.5 L-197.2 -11.7 -197.15 -12 -197.1 -12.65 -196.25 -15.55 -186.45 -38.8 Q-185.55 -42.8 -182.45 -45.9 -178.05 -50.3 -171.85 -50.3 -160.8 -48.65 -149.8 -48.6 L-148.9 -48.6 -148.75 -48.6 -66.7 -48.35 -52.4 -48.3 0.6 -48.6 M37.6 -38.8 L37.95 -35.3 M-186.85 -35.3 Q-186.85 -37.1 -186.45 -38.8"/><path fill="none" stroke="rgb(162,162,162)" stroke-width="2" stroke-linecap="round" stroke-linejoin="round" d="M-176.2 24.15 Q-172.85 25.45 -168.35 26.1 L-149.8 27.55 -148.9 27.55 -66.7 27.55 0.6 27.55 0.9 27.55 19.45 26.1 Q27.3 24.95 31.65 21.9 L32.85 20.95 M37.95 -35.3 L37.95 9.7 Q37.95 15.9 33.55 20.3 L32.85 20.95 M-182 20.7 Q-180.45 22.15 -178.3 23.25 L-176.2 24.15 M-186.85 -35.3 L-186.85 9.7 Q-186.85 15.9 -182.45 20.3 L-182 20.7"/></g><g xmlns="http://www.w3.org/2000/svg" id=":m69-256" bounds="34,7,78,32"><text x="0" y="37" font-family="&apos;Helvetica&apos;" font-size="40" fill="#000000" style="white-space:pre" transform="matrix(1 0 0 1 31.9 0)">Shift</text></g><g xmlns="http://www.w3.org/2000/svg" id=":m88-256" bounds="-49,-51,559,103"><path stroke="none" fill="rgb(244,244,244)" d="M491.5 22 L491.65 21.9 491.5 22.05 491.5 22 M484.35 -50.25 L482.6 -50.25 482.95 -50.3 483.45 -50.3 484.35 -50.25"/><path stroke="none" fill="rgb(216,216,216)" d="M-22.95 -50.3 Q-11.9 -48.65 -0.9 -48.6 L-0.2 -48.6 -0.2 -47.15 Q-10.05 -47.4 -19.9 -48.85 -26.1 -48.85 -30.5 -44.45 -33.6 -41.35 -34.5 -37.35 -34.9 -35.65 -34.9 -33.85 L-34.9 -9.9 352.7 -9.9 367.3 -9.9 439.25 -9.9 443.7 -9.9 Q476.05 -8.9 491.5 22 L491.5 22.05 Q487.15 25 479.45 26.1 L465 27.4 462.75 27.5 459.8 27.5 -0.2 27.45 -4.05 27.45 -5.05 27.4 -19.45 26.1 Q-23.95 25.45 -27.3 24.15 L-29.15 22.9 -29.4 22.75 -30.05 22.15 -30.5 21.75 -30.9 22.4 -33.1 20.7 -33.55 20.3 Q-37.95 15.9 -37.95 9.7 L-37.95 -35.3 Q-37.95 -37.1 -37.55 -38.8 -36.65 -42.8 -33.55 -45.9 -29.15 -50.3 -22.95 -50.3 M-43.4 43.6 L-43.9 43.1 -43.3 43.4 -43.4 43.6"/><path stroke="none" fill="rgb(255,255,255)" d="M-30.9 22.4 L-30.5 21.75 -30.05 22.15 -29.4 22.75 -29.15 22.9 -27.3 24.15 -29.4 23.25 -30.9 22.4"/><path stroke="none" fill="rgb(188,188,188)" d="M491.65 21.9 L492.85 20.95 493 21.2 491.5 22.05 491.65 21.9"/><path stroke="none" fill="rgb(231,231,231)" d="M-4.05 27.45 L-0.2 27.45 -0.2 27.55 -0.9 27.55 -4.05 27.45 M459.8 27.5 L462.75 27.5 460.9 27.55 460.3 27.55 460 27.55 459.8 27.55 459.8 27.5"/><path stroke="none" fill="rgb(205,205,205)" d="M491.5 22 Q476.05 -8.9 443.7 -9.9 L439.25 -9.9 367.3 -9.9 352.7 -9.9 -34.9 -9.9 -34.9 -33.85 Q-34.9 -35.65 -34.5 -37.35 -33.6 -41.35 -30.5 -44.45 -26.1 -48.85 -19.9 -48.85 -10.05 -47.4 -0.2 -47.15 L-0.2 -48.6 -0.9 -48.6 Q-11.9 -48.65 -22.95 -50.3 L482.6 -50.25 484.35 -50.25 484.65 -50.2 Q489.75 -49.7 493.55 -45.9 496.65 -42.8 497.6 -38.8 L497.95 -35.3 497.6 -38.8 502.7 -26.6 502.7 22.3 502.5 24.85 Q501.85 28.95 499 32.15 L493 21.2 492.85 20.95 491.65 21.9 491.5 22 M497.95 -35.3 L497.95 9.7 Q497.95 15.9 493.55 20.3 L492.85 20.95 493.55 20.3 Q497.95 15.9 497.95 9.7 L497.95 -35.3 M-37.55 -38.8 Q-37.95 -37.1 -37.95 -35.3 L-37.95 9.7 Q-37.95 15.9 -33.55 20.3 L-33.1 20.7 -43.3 43.4 -43.9 43.1 Q-48.3 38.7 -48.3 32.5 L-48.3 -11.7 -48.25 -12 -48.2 -12.65 -47.35 -15.55 -37.55 -38.8"/><path stroke="none" fill="rgb(180,180,180)" d="M-33.1 20.7 L-30.9 22.4 -29.4 23.25 -27.3 24.15 Q-23.95 25.45 -19.45 26.1 L-5.05 27.4 -4.05 27.45 -0.9 27.55 -0.2 27.55 -0.2 27.45 459.8 27.5 459.8 27.55 460 27.55 460.3 27.55 460.9 27.55 462.75 27.5 465 27.4 479.45 26.1 Q487.15 25 491.5 22.05 L493 21.2 499 32.15 Q501.85 28.95 502.5 24.85 L502.7 22.3 502.7 -26.6 507.35 -15.55 508.2 -12.65 508.3 -12 508.3 -11.7 508.3 32.5 Q508.3 38.2 504.6 42.35 L503.9 43.1 501.9 44.8 Q497.5 47.8 489.8 48.9 L471.25 50.35 -11.25 50.35 -29.8 48.9 Q-39 47.6 -43.4 43.6 L-43.3 43.4 -33.1 20.7"/><path fill="none" stroke="rgb(102,102,102)" stroke-width="2" stroke-linecap="round" stroke-linejoin="round" d="M497.95 -35.3 L497.6 -38.8 Q496.65 -42.8 493.55 -45.9 489.75 -49.7 484.65 -50.2 L484.35 -50.25 482.6 -50.25 -22.95 -50.3 Q-29.15 -50.3 -33.55 -45.9 -36.65 -42.8 -37.55 -38.8 -37.95 -37.1 -37.95 -35.3 M482.6 -50.25 L482.95 -50.3 483.45 -50.3 484.35 -50.25 M502.7 -26.6 L507.35 -15.55 508.2 -12.65 508.3 -12 508.3 -11.7 508.3 32.5 Q508.3 38.2 504.6 42.35 L503.9 43.1 501.9 44.8 Q497.5 47.8 489.8 48.9 L471.25 50.35 -11.25 50.35 -29.8 48.9 Q-39 47.6 -43.4 43.6 L-43.9 43.1 Q-48.3 38.7 -48.3 32.5 L-48.3 -11.7 -48.25 -12 -48.2 -12.65 -47.35 -15.55 -37.55 -38.8 M497.6 -38.8 L502.7 -26.6"/><path fill="none" stroke="rgb(162,162,162)" stroke-width="2" stroke-linecap="round" stroke-linejoin="round" d="M491.65 21.9 L492.85 20.95 493.55 20.3 Q497.95 15.9 497.95 9.7 L497.95 -35.3 M-37.95 -35.3 L-37.95 9.7 Q-37.95 15.9 -33.55 20.3 L-33.1 20.7 -30.9 22.4 -29.4 23.25 -27.3 24.15 Q-23.95 25.45 -19.45 26.1 L-5.05 27.4 M462.75 27.5 L465 27.4 479.45 26.1 Q487.15 25 491.5 22.05 L491.65 21.9 M-0.2 27.55 L-0.9 27.55 -4.05 27.45 M459.8 27.55 L460 27.55 460.3 27.55 460.9 27.55 462.75 27.5"/><path fill="none" stroke="rgb(162,162,162)" stroke-width="2" stroke-linecap="round" stroke-linejoin="round" d="M-5.05 27.4 L-4.05 27.45 -0.2 27.45 459.8 27.5 462.75 27.5"/></g><g xmlns="http://www.w3.org/2000/svg" id=":m87-256" bounds="-21,-17,82,60"><path fill="none" stroke="rgb(0,0,0)" stroke-width="3.5" stroke-linecap="round" stroke-linejoin="round" d="M-5.15 -14.5 Q-5.4 -13.3 -6.25 -11.85 -7.15 -10.4 -8.05 -9.55 -8.95 -8.7 -9.4 -8.95 -9.9 -9.25 -9.6 -10.45 -9.35 -11.65 -8.5 -13.1 -7.65 -14.6 -6.7 -15.4 -5.8 -16.25 -5.35 -15.95 -4.9 -15.7 -5.15 -14.5 M-0.95 -3.5 Q-2.6 -2.95 -3.9 -1.6 -6.25 0.75 -6.25 4.15 -6.25 7.5 -3.9 9.9 -2.45 11.35 -0.6 11.9 L-0.8 12.1 Q-4 15.3 -8.55 15.3 -13.15 15.3 -16.3 12.1 -19.5 8.9 -19.5 4.35 -19.5 -0.2 -16.3 -3.4 -13.15 -6.6 -8.55 -6.6 -4.1 -6.6 -0.95 -3.5"/><path fill="none" stroke="rgb(0,0,0)" stroke-width="3.5" stroke-linecap="round" stroke-linejoin="round" d="M49.3 18.05 Q49.35 15.55 50.6 14.3 51.9 12.95 53.85 12.95 55.75 12.95 57.05 14.3 58.4 15.6 58.4 17.55 58.4 19.45 57.05 20.75 L55.55 21.75 54.55 22 49.2 22 49.3 18.05 M55.55 32.25 L54.55 32 49.2 32 49.3 35.95 Q49.35 38.45 50.6 39.75 51.9 41.05 53.85 41.05 55.7 41.05 57.05 39.75 58.35 38.4 58.4 36.5 58.35 34.55 57.05 33.25 56.35 32.6 55.55 32.25 M39.1 22.05 L49.2 22.05 49.15 32.1 39.1 32.1 39 35.9 Q38.95 38.4 37.7 39.7 36.35 41 34.45 41 32.55 41 31.25 39.7 29.9 38.35 29.9 36.45 29.9 34.55 31.25 33.25 31.9 32.55 32.75 32.25 L33.85 31.95 39.1 31.95 39.1 22.05 33.9 22.05 32.75 21.8 31.25 20.8 Q29.9 19.45 29.9 17.55 29.9 15.65 31.25 14.3 32.55 13 34.5 13 36.4 13 37.7 14.3 38.95 15.6 39 18.1 L39.1 22.05 M39.1 32.1 L39.1 31.95"/></g><g xmlns="http://www.w3.org/2000/svg" id=":m85-256" bounds="61,5,24,19"><text x="0" y="22" font-family="&apos;Helvetica&apos;" font-size="24" fill="#000000" style="white-space:pre" transform="matrix(1 0 0 1 59.25 0)">alt</text></g><g xmlns="http://www.w3.org/2000/svg" id=":m86-256" bounds="29,6,86,33"><text x="0" y="31" font-family="&apos;Helvetica&apos;" font-size="33" fill="#000000" style="white-space:pre" transform="matrix(1 0 0 1 26.95 0)">option</text></g><g xmlns="http://www.w3.org/2000/svg" id=":m3-256" bounds="-49,-51,99,103"><path stroke="none" fill="rgb(216,216,216)" d="M-37.55 -38.8 Q-36.65 -42.8 -33.55 -45.9 -29.15 -50.3 -22.95 -50.3 -11.9 -48.65 -0.9 -48.6 L0 -48.6 0.15 -48.6 0.9 -48.6 5.35 -48.7 22.95 -50.3 23.45 -50.3 Q29.35 -50.1 33.55 -45.9 36.65 -42.8 37.6 -38.8 L37.95 -35.3 37.95 9.7 Q37.95 15.9 33.55 20.3 L32.85 20.95 31.65 21.9 Q33.15 -40.7 0.8 -47.15 -9.55 -47.3 -19.9 -48.85 -26.1 -48.85 -30.5 -44.45 -33.6 -41.35 -34.5 -37.35 -34.9 -35.65 -34.9 -33.85 L-34.9 11.15 Q-34.9 17.35 -30.5 21.75 L-30.05 22.15 -29.4 22.75 -27.3 24.15 -29.4 23.25 Q-31.55 22.15 -33.1 20.7 L-33.55 20.3 Q-37.95 15.9 -37.95 9.7 L-37.95 -35.3 Q-37.95 -37.1 -37.55 -38.8 Z"/><path stroke="none" fill="rgb(205,205,205)" d="M-37.55 -38.8 Q-37.95 -37.1 -37.95 -35.3 L-37.95 9.7 Q-37.95 15.9 -33.55 20.3 L-33.1 20.7 -43.4 43.6 -43.9 43.1 Q-48.3 38.7 -48.3 32.5 L-48.3 -11.7 -48.25 -12 -48.2 -12.65 -47.35 -15.55 -37.55 -38.8 M37.6 -38.8 L42.7 -26.6 42.7 22.3 Q42.7 28 39 32.15 L32.85 20.95 33.55 20.3 Q37.95 15.9 37.95 9.7 L37.95 -35.3 37.6 -38.8 M-27.3 24.15 L-29.4 22.75 -30.05 22.15 -30.5 21.75 Q-34.9 17.35 -34.9 11.15 L-34.9 -33.85 Q-34.9 -35.65 -34.5 -37.35 -33.6 -41.35 -30.5 -44.45 -26.1 -48.85 -19.9 -48.85 -9.55 -47.3 0.8 -47.15 33.15 -40.7 31.65 21.9 27.3 24.95 19.45 26.1 L0.9 27.55 0 27.55 -0.9 27.55 -19.45 26.1 Q-23.95 25.45 -27.3 24.15"/><path stroke="none" fill="rgb(180,180,180)" d="M-27.3 24.15 Q-23.95 25.45 -19.45 26.1 L-0.9 27.55 0 27.55 0.9 27.55 19.45 26.1 Q27.3 24.95 31.65 21.9 L32.85 20.95 39 32.15 Q42.7 28 42.7 22.3 L42.7 -26.6 47.35 -15.55 48.2 -12.65 48.3 -12 48.3 -11.7 48.3 32.5 Q48.3 38.2 44.6 42.35 L43.9 43.1 41.9 44.8 Q37.5 47.8 29.8 48.9 L11.25 50.35 -11.25 50.35 -29.8 48.9 Q-39 47.6 -43.4 43.6 L-33.1 20.7 Q-31.55 22.15 -29.4 23.25 L-27.3 24.15"/><path fill="none" stroke="rgb(102,102,102)" stroke-width="2" stroke-linecap="round" stroke-linejoin="round" d="M-37.55 -38.8 Q-36.65 -42.8 -33.55 -45.9 -29.15 -50.3 -22.95 -50.3 -11.9 -48.65 -0.9 -48.6 L0 -48.6 0.15 -48.6 0.9 -48.6 5.35 -48.7 22.95 -50.3 23.45 -50.3 Q29.35 -50.1 33.55 -45.9 36.65 -42.8 37.6 -38.8 L42.7 -26.6 47.35 -15.55 48.2 -12.65 48.3 -12 48.3 -11.7 48.3 32.5 Q48.3 38.2 44.6 42.35 L43.9 43.1 41.9 44.8 Q37.5 47.8 29.8 48.9 L11.25 50.35 -11.25 50.35 -29.8 48.9 Q-39 47.6 -43.4 43.6 L-43.9 43.1 Q-48.3 38.7 -48.3 32.5 L-48.3 -11.7 -48.25 -12 -48.2 -12.65 -47.35 -15.55 -37.55 -38.8 Q-37.95 -37.1 -37.95 -35.3 M37.95 -35.3 L37.6 -38.8"/><path fill="none" stroke="rgb(162,162,162)" stroke-width="2" stroke-linecap="round" stroke-linejoin="round" d="M-37.95 -35.3 L-37.95 9.7 Q-37.95 15.9 -33.55 20.3 L-33.1 20.7 Q-31.55 22.15 -29.4 23.25 L-27.3 24.15 M31.65 21.9 L32.85 20.95 33.55 20.3 Q37.95 15.9 37.95 9.7 L37.95 -35.3 M31.65 21.9 Q27.3 24.95 19.45 26.1 L0.9 27.55 0 27.55 -0.9 27.55 -19.45 26.1 Q-23.95 25.45 -27.3 24.15"/></g><g xmlns="http://www.w3.org/2000/svg" id=":m34-256" bounds="-81,-51,131,103"><path stroke="none" fill="rgb(216,216,216)" d="M-69.55 -38.8 Q-68.65 -42.8 -65.55 -45.9 -61.15 -50.3 -54.95 -50.3 -43.9 -48.65 -32.9 -48.6 L-32 -48.6 -31.85 -48.6 0.7 -48.6 0.9 -48.6 5.35 -48.7 22.95 -50.3 23.45 -50.3 Q29.35 -50.1 33.55 -45.9 36.65 -42.8 37.6 -38.8 L37.95 -35.3 37.95 9.7 Q37.95 15.9 33.55 20.3 L32.85 20.95 31.65 21.9 Q33.15 -40.7 0.8 -47.15 L0.7 -47.15 0.7 -48.6 -31.3 -47.15 Q-41.6 -47.3 -51.9 -48.85 -58.1 -48.85 -62.5 -44.45 -65.6 -41.35 -66.5 -37.35 -66.9 -35.65 -66.9 -33.85 L-66.9 11.15 Q-66.9 17.35 -62.5 21.75 L-62.05 22.15 -61.4 22.75 -59.3 24.15 -61.4 23.25 Q-63.55 22.15 -65.1 20.7 L-65.55 20.3 Q-69.95 15.9 -69.95 9.7 L-69.95 -35.3 Q-69.95 -37.1 -69.55 -38.8 Z"/><path stroke="none" fill="rgb(180,180,180)" d="M42.7 -26.6 L47.35 -15.55 48.2 -12.65 48.3 -12 48.3 -11.7 48.3 32.5 Q48.3 38.2 44.6 42.35 L43.9 43.1 41.9 44.8 Q37.5 47.8 29.8 48.9 L11.25 50.35 -43.25 50.35 -61.8 48.9 Q-71 47.6 -75.4 43.6 L-65.1 20.7 Q-63.55 22.15 -61.4 23.25 L-59.3 24.15 Q-55.95 25.45 -51.45 26.1 L-32.9 27.55 -32 27.55 0.7 27.55 0.9 27.55 19.45 26.1 Q27.3 24.95 31.65 21.9 L32.85 20.95 39 32.15 Q42.7 28 42.7 22.3 L42.7 -26.6 Z"/><path stroke="none" fill="rgb(205,205,205)" d="M42.7 -26.6 L42.7 22.3 Q42.7 28 39 32.15 L32.85 20.95 33.55 20.3 Q37.95 15.9 37.95 9.7 L37.95 -35.3 37.6 -38.8 42.7 -26.6 M-75.4 43.6 L-75.9 43.1 Q-80.3 38.7 -80.3 32.5 L-80.3 -11.7 -80.25 -12 -80.2 -12.65 -79.35 -15.55 -69.55 -38.8 Q-69.95 -37.1 -69.95 -35.3 L-69.95 9.7 Q-69.95 15.9 -65.55 20.3 L-65.1 20.7 -75.4 43.6 M-59.3 24.15 L-61.4 22.75 -62.05 22.15 -62.5 21.75 Q-66.9 17.35 -66.9 11.15 L-66.9 -33.85 Q-66.9 -35.65 -66.5 -37.35 -65.6 -41.35 -62.5 -44.45 -58.1 -48.85 -51.9 -48.85 -41.6 -47.3 -31.3 -47.15 L0.7 -48.6 0.7 -47.15 0.8 -47.15 Q33.15 -40.7 31.65 21.9 27.3 24.95 19.45 26.1 L0.9 27.55 0.7 27.55 -32 27.55 -32.9 27.55 -51.45 26.1 Q-55.95 25.45 -59.3 24.15"/><path fill="none" stroke="rgb(102,102,102)" stroke-width="2" stroke-linecap="round" stroke-linejoin="round" d="M-69.55 -38.8 Q-68.65 -42.8 -65.55 -45.9 -61.15 -50.3 -54.95 -50.3 -43.9 -48.65 -32.9 -48.6 L-32 -48.6 -31.85 -48.6 0.7 -48.6 0.9 -48.6 5.35 -48.7 22.95 -50.3 23.45 -50.3 Q29.35 -50.1 33.55 -45.9 36.65 -42.8 37.6 -38.8 L42.7 -26.6 47.35 -15.55 48.2 -12.65 48.3 -12 48.3 -11.7 48.3 32.5 Q48.3 38.2 44.6 42.35 L43.9 43.1 41.9 44.8 Q37.5 47.8 29.8 48.9 L11.25 50.35 -43.25 50.35 -61.8 48.9 Q-71 47.6 -75.4 43.6 L-75.9 43.1 Q-80.3 38.7 -80.3 32.5 L-80.3 -11.7 -80.25 -12 -80.2 -12.65 -79.35 -15.55 -69.55 -38.8 Q-69.95 -37.1 -69.95 -35.3 M37.95 -35.3 L37.6 -38.8"/><path fill="none" stroke="rgb(162,162,162)" stroke-width="2" stroke-linecap="round" stroke-linejoin="round" d="M-69.95 -35.3 L-69.95 9.7 Q-69.95 15.9 -65.55 20.3 L-65.1 20.7 Q-63.55 22.15 -61.4 23.25 L-59.3 24.15 Q-55.95 25.45 -51.45 26.1 L-32.9 27.55 -32 27.55 0.7 27.55 0.9 27.55 19.45 26.1 Q27.3 24.95 31.65 21.9 L32.85 20.95 33.55 20.3 Q37.95 15.9 37.95 9.7 L37.95 -35.3"/></g><g xmlns="http://www.w3.org/2000/svg" id=":m84-256" bounds="29,5,87,23"><text x="0" y="26" font-family="&apos;Helvetica&apos;" font-size="28" fill="#000000" style="white-space:pre" transform="matrix(1 0 0 1 26.85 0)">Control</text></g><g xmlns="http://www.w3.org/2000/svg" id=":m105-256" bounds="-24,-29,49,59"><path stroke="none" fill="rgb(0,0,0)" d="M16.3 -17.6 L15.4 -18.7 Q9.75 -25.6 2 -26.35 L0 -26.45 -2.05 -26.35 Q-9.75 -25.55 -15.4 -18.7 L-16.25 -17.6 Q-17.7 -15.7 -18.75 -13.6 -20.15 -10.75 -20.9 -7.6 -21.8 -4 -21.75 0 L-21.7 2.4 Q-21.35 7.8 -19.3 12.4 -17.8 15.8 -15.4 18.75 L-13.9 20.4 Q-8.75 25.65 -2.05 26.35 L0 26.45 0.8 26.45 2 26.35 Q7.1 25.85 11.35 22.7 L13.9 20.4 14.7 19.6 15.4 18.75 Q17.2 16.55 18.5 14.1 L19.35 12.4 20.9 7.85 21.55 4 21.7 2.4 21.8 0 21.5 -4.6 21.25 -6.2 20.95 -7.6 Q20.15 -10.75 18.75 -13.6 L17.15 -16.35 16.75 -16.9 16.3 -17.6 M2.3 -29.25 Q9.9 -28.5 15.7 -22.35 L17.1 -20.8 19.45 -17.6 19.6 -17.3 21.55 -13.6 Q22.75 -10.75 23.45 -7.6 L23.55 -7.05 23.9 -5 24.2 0 24.15 2.4 24.1 3.1 23.5 7.45 Q22.95 10 22.05 12.4 L21.8 13 Q20.4 16.35 18.25 19.35 L17.45 20.4 17.2 20.75 17.1 20.8 15.7 22.4 Q12 26.25 7.6 28 5.05 29 2.3 29.3 L0 29.4 Q-10 29.4 -17.1 20.8 L-17.4 20.4 Q-20.35 16.7 -22 12.4 -23.8 7.75 -24.1 2.4 L-24.2 0 Q-24.2 -4 -23.4 -7.6 -22.75 -10.75 -21.5 -13.6 -20.65 -15.7 -19.4 -17.6 L-17.1 -20.8 Q-10 -29.4 0 -29.4 L2.3 -29.25"/><path stroke="none" fill="rgb(214,213,150)" d="M-16.25 -17.6 L-15.4 -18.7 Q-9.75 -25.55 -2.05 -26.35 L0 -26.45 2 -26.35 Q9.75 -25.6 15.4 -18.7 L16.3 -17.6 14.15 -16.7 Q7.75 -14.3 1.6 -13.95 -4.5 -13.6 -10.35 -15.3 L-9.9 -16.3 -9.8 -16.5 Q-8.55 -18.9 -6.9 -21.1 L-5.85 -22.45 -3.75 -24.8 Q-7.95 -22.9 -11.4 -18.7 L-12.25 -17.6 -13.2 -16.25 Q-14.75 -16.85 -16.25 -17.6 M19.35 12.4 L18.5 14.1 Q17.2 16.55 15.4 18.75 L14.7 19.6 13.9 20.4 Q7.75 23.15 1.8 23.55 L-5.3 23.15 -5.85 22.5 -6.35 21.85 Q-8.8 18.75 -10.4 15.25 L-8.9 15.55 1.85 16.35 Q10.5 15.95 19.35 12.4 M-13.9 20.4 L-15.4 18.75 Q-17.8 15.8 -19.3 12.4 L-14.45 14.2 -11.4 18.75 -9.9 20.4 -7.15 22.8 Q-10.55 22 -13.9 20.4 M-21.7 2.4 L-21.75 0 Q-21.8 -4 -20.9 -7.6 -19.1 -6.8 -17.2 -6.15 -17.8 -3.25 -17.75 0 L-17.7 2.4 -17.55 4 -21.7 2.4"/><path stroke="none" fill="rgb(83,83,83)" d="M-21.7 2.4 L-17.55 4 Q-17.05 8.5 -15.3 12.4 L-14.45 14.2 -19.3 12.4 Q-21.35 7.8 -21.7 2.4 M16.3 -17.6 L16.75 -16.9 17.15 -16.35 18.75 -13.6 Q20.15 -10.75 20.95 -7.6 14.75 -5.1 8.65 -4 L1.85 -3.25 Q-5.75 -3 -13.2 -4.95 L-13.05 -6.1 -12.5 -9.1 Q-11.75 -12.35 -10.35 -15.3 -4.5 -13.6 1.6 -13.95 7.75 -14.3 14.15 -16.7 L16.3 -17.6 M21.7 2.4 L21.55 4 20.9 7.85 19.35 12.4 Q10.5 15.95 1.85 16.35 L-8.9 15.55 -10.4 15.25 -10.6 14.9 -10.95 14 Q-12.6 9.95 -13.2 5.3 -6.85 6.95 -0.45 7 L2 7 Q11.85 6.6 21.7 2.4 M13.9 20.4 L11.35 22.7 Q7.1 25.85 2 26.35 L0.8 26.45 0 26.45 -2.05 26.35 Q-8.75 25.65 -13.9 20.4 -10.55 22 -7.15 22.8 -5.55 24 -3.75 24.8 L-4.05 24.5 -5.3 23.15 1.8 23.55 Q7.75 23.15 13.9 20.4 M-20.9 -7.6 Q-20.15 -10.75 -18.75 -13.6 -17.7 -15.7 -16.25 -17.6 -14.75 -16.85 -13.2 -16.25 L-14.75 -13.6 Q-16.15 -10.75 -16.9 -7.6 L-17.2 -6.15 Q-19.1 -6.8 -20.9 -7.6"/><path stroke="none" fill="rgb(240,239,217)" d="M-13.2 -16.25 L-12.25 -17.6 -11.4 -18.7 Q-7.95 -22.9 -3.75 -24.8 L-5.85 -22.45 -6.9 -21.1 Q-8.55 -18.9 -9.8 -16.5 L-9.9 -16.3 -10.35 -15.3 -13.2 -16.25 M-14.45 14.2 L-10.4 15.25 Q-8.8 18.75 -6.35 21.85 L-5.85 22.5 -5.3 23.15 -7.15 22.8 -9.9 20.4 -11.4 18.75 -14.45 14.2 M-17.2 -6.15 L-13.2 -4.95 Q-13.55 -2.55 -13.5 0 L-13.45 2.9 -13.35 4.05 -13.2 5.3 -17.55 4 -17.7 2.4 -17.75 0 Q-17.8 -3.25 -17.2 -6.15"/><path stroke="none" fill="rgb(131,131,131)" d="M-17.2 -6.15 L-16.9 -7.6 Q-16.15 -10.75 -14.75 -13.6 L-13.2 -16.25 -10.35 -15.3 Q-11.75 -12.35 -12.5 -9.1 L-13.05 -6.1 -13.2 -4.95 -17.2 -6.15 M-13.2 5.3 Q-12.6 9.95 -10.95 14 L-10.6 14.9 -10.4 15.25 -14.45 14.2 -15.3 12.4 Q-17.05 8.5 -17.55 4 L-13.2 5.3 M-7.15 22.8 L-5.3 23.15 -4.05 24.5 -3.75 24.8 Q-5.55 24 -7.15 22.8"/><path stroke="none" fill="rgb(214,213,150)" d="M20.95 -7.6 L21.25 -6.2 21.5 -4.6 21.8 0 21.7 2.4 Q11.85 6.6 2 7 L-0.45 7 Q-6.85 6.95 -13.2 5.3 L-13.35 4.05 -13.45 2.9 -13.5 0 Q-13.55 -2.55 -13.2 -4.95 -5.75 -3 1.85 -3.25 L8.65 -4 Q14.75 -5.1 20.95 -7.6"/></g><g xmlns="http://www.w3.org/2000/svg" id=":m102-256" bounds="-18,-28,36,54"><path stroke="none" fill="rgb(101,113,158)" d="M8.35 25.05 L10.25 22.25 Q14.6 14.85 14.6 4.3 14.6 -6.25 10.25 -13.65 5.95 -21.1 -0.2 -21.05 -6.35 -21.1 -10.7 -13.65 -15 -6.25 -15 4.3 -15 14.85 -10.7 22.25 L-10.85 22.5 -12.75 19.95 Q-18 11.7 -18 0 -18 -11.7 -12.75 -19.95 -7.45 -28.2 0 -28.2 7.45 -28.2 12.7 -19.95 18 -11.7 18 0 18 11.7 12.7 19.95 10.7 23.1 8.35 25.05 Z"/><path stroke="none" fill="rgb(194,199,218)" d="M8.35 25.05 Q4.7 20.4 -0.3 20 -5.3 19.6 -9.7 23.85 L-10.7 22.25 Q-15 14.85 -15 4.3 -15 -6.25 -10.7 -13.65 -6.35 -21.1 -0.2 -21.05 5.95 -21.1 10.25 -13.65 14.6 -6.25 14.6 4.3 14.6 14.85 10.25 22.25 L8.35 25.05 Z"/></g><g xmlns="http://www.w3.org/2000/svg" id=":m107-256" bounds="-56,-35,113,72"><path stroke="none" fill="rgb(51,51,51)" d="M55.8 36.75 L-56.25 34.55 -56.4 -35.25 56.35 -34.6 55.8 36.75 M52.65 -30.95 L-52.75 -32.25 -52.8 31.3 51.9 33.25 52.65 -30.95"/><path stroke="none" fill="rgb(204,204,204)" d="M52.65 -30.95 L51.9 33.25 -52.8 31.3 -52.75 -32.25 52.65 -30.95 M50.05 30.15 L49.2 -27.7 -49.4 -30.3 -51 29.3 50.05 30.15"/><path stroke="none" fill="rgb(255,255,255)" d="M-49.4 -30.3 L49.2 -27.7 50.05 30.15 -51 29.3 -49.4 -30.3"/></g><g xmlns="http://www.w3.org/2000/svg" id=":m109-256" bounds="-22,-22,45,45"><path stroke="none" fill="rgb(0,0,0)" d="M0.95 20.6 Q8.85 20.25 14.55 14.6 20.55 8.6 20.55 0.05 20.55 -8.55 14.55 -14.55 8.85 -20.2 0.95 -20.55 L-0.05 -20.55 Q-8.6 -20.55 -14.6 -14.55 -20.6 -8.55 -20.6 0.05 -20.6 8.6 -14.6 14.6 -8.6 20.6 -0.05 20.6 L0.95 20.6 M16 16.05 Q9.35 22.65 -0.05 22.65 -9.45 22.65 -16.05 16.05 -22.65 9.45 -22.65 0.05 -22.65 -9.35 -16.05 -15.95 -9.45 -22.6 -0.05 -22.6 9.35 -22.6 16 -15.95 22.6 -9.35 22.6 0.05 22.6 9.45 16 16.05"/><path stroke="none" fill="rgb(131,131,131)" d="M0.95 20.6 L-0.05 20.6 Q-8.6 20.6 -14.6 14.6 -20.6 8.6 -20.6 0.05 -20.6 -8.55 -14.6 -14.55 -8.6 -20.55 -0.05 -20.55 L0.95 -20.55 Q-6.95 -20.2 -12.6 -14.55 -18.6 -8.55 -18.6 0.05 -18.6 8.6 -12.6 14.6 -6.95 20.25 0.95 20.6"/><path stroke="none" fill="rgb(88,88,88)" d="M0.95 20.6 Q-6.95 20.25 -12.6 14.6 -18.6 8.6 -18.6 0.05 -18.6 -8.55 -12.6 -14.55 -6.95 -20.2 0.95 -20.55 8.85 -20.2 14.55 -14.55 20.55 -8.55 20.55 0.05 20.55 8.6 14.55 14.6 8.85 20.25 0.95 20.6"/></g><g xmlns="http://www.w3.org/2000/svg" id=":m112-256" bounds="-3,-6,7,13"><path stroke="none" fill="rgb(0,0,0)" d="M2.7 -1.1 Q3.7 1.45 3.7 3.55 3.65 5.65 2.55 6.15 1.45 6.6 -0.05 5.1 -1.55 3.6 -2.6 1.05 -3.65 -1.5 -3.65 -3.6 -3.6 -5.7 -2.45 -6.15 -1.35 -6.65 0.1 -5.1 1.65 -3.65 2.7 -1.1 M2.15 -0.85 Q1.3 -2.9 0.1 -4.1 -1.1 -5.3 -1.95 -4.95 -2.85 -4.6 -2.9 -2.85 -2.9 -1.2 -2.05 0.85 -1.25 2.9 -0.05 4.1 1.15 5.25 2.05 4.9 2.95 4.55 2.95 2.85 3 1.15 2.15 -0.85"/><path stroke="none" fill="rgb(255,255,255)" d="M2.15 -0.85 Q3 1.15 2.95 2.85 2.95 4.55 2.05 4.9 1.15 5.25 -0.05 4.1 -1.25 2.9 -2.05 0.85 -2.9 -1.2 -2.9 -2.85 -2.85 -4.6 -1.95 -4.95 -1.1 -5.3 0.1 -4.1 1.3 -2.9 2.15 -0.85"/></g><g xmlns="http://www.w3.org/2000/svg" id=":m113-256" bounds="-20,-11,41,20"><path stroke="none" fill="rgb(0,0,0)" d="M20.4 -8.65 Q15.85 -3.65 10.9 -1.15 1.05 7.95 -3.5 8.45 -8.05 8.9 -18.55 -4.5 -19.25 -2.45 -19.35 0.1 -23.15 -8.45 -13.1 -11.1 -16.25 -9.35 -17.8 -6.25 1.4 5.75 20.4 -8.65 M-16.75 -4.2 Q-9.9 3.45 -4.55 5.15 0.75 6.85 7.85 0.15 -4.1 4.3 -16.75 -4.2"/><path stroke="none" fill="rgb(255,255,255)" d="M-16.75 -4.2 Q-4.1 4.3 7.85 0.15 0.75 6.85 -4.55 5.15 -9.9 3.45 -16.75 -4.2"/></g><g xmlns="http://www.w3.org/2000/svg" id=":m100-256" bounds="-8,-14,16,29"><path stroke="none" fill="rgb(0,0,0)" d="M-8 13.5 Q-8.6 -0.75 8 -14.7 -6 -1.95 -5.25 13.45 -5.45 14.75 -6.65 14.7 -7.9 14.6 -8 13.5 Z"/></g><g xmlns="http://www.w3.org/2000/svg" id=":m114-256" bounds="54,17,82,54"><text x="0" y="69" font-family="&apos;Century Gothic Bold&apos;" font-size="70" font-weight="bold" fill="#000000" style="white-space:pre" transform="matrix(1 0 0 1 52.3 0)">4</text></g><g xmlns="http://www.w3.org/2000/svg" id=":m93-256" bounds="-52,-53,111,115"><path stroke="none" fill="rgb(255,204,0)" d="M30 -49.8 Q37.5 -49.6 42.95 -44.2 46.9 -40.2 48.1 -35.1 L48.55 26.95 Q48.55 34.9 42.95 40.55 L42.05 41.35 40.5 42.55 Q34.9 46.5 24.9 47.95 L1.15 49.8 0 49.75 -1.15 49.8 -24.9 47.95 Q-30.7 47.1 -34.95 45.45 L-37.3 44.4 -37.6 44.25 Q-40.4 42.85 -42.4 41.05 L-42.95 40.55 Q-45 38.45 -46.3 36.1 -48.55 32 -48.55 26.95 L-48.1 -35.1 Q-46.9 -40.2 -42.95 -44.2 -37.3 -49.85 -29.35 -49.8 -15.25 -47.75 -1.15 -47.7 L0 -47.7 0.2 -47.7 1.15 -47.7 6.8 -47.8 Q18.1 -48.15 29.4 -49.8 L30 -49.8 M22.3 -36.85 L21.85 -36.85 Q13.5 -35.6 5.2 -35.3 L1 -35.25 0.3 -35.25 -0.7 -35.25 Q-11.1 -35.3 -21.5 -36.85 -27.35 -36.85 -31.5 -32.65 -34.45 -29.75 -35.3 -25.95 -35.7 -24.4 -35.65 -22.65 L-35.65 19.8 Q-35.7 25.65 -31.5 29.85 L-31.1 30.2 -27.6 32.6 -25.65 33.45 Q-22.5 34.7 -18.2 35.3 L-0.7 36.65 0.15 36.65 1 36.65 18.55 35.3 Q25.9 34.25 30.05 31.35 L31.2 30.45 31.85 29.85 Q36 25.65 36 19.8 L36 -22.65 Q36 -24.4 35.65 -25.95 34.75 -29.75 31.85 -32.65 27.85 -36.65 22.3 -36.85"/><path fill="none" stroke="rgb(0,0,0)" stroke-width="1" stroke-linecap="round" stroke-linejoin="round" d="M30 -49.8 Q37.5 -49.6 42.95 -44.2 46.9 -40.2 48.1 -35.1 L48.55 26.95 Q48.55 34.9 42.95 40.55 L42.05 41.35 40.5 42.55 Q34.9 46.5 24.9 47.95 L1.15 49.8 0 49.75 -1.15 49.8 -24.9 47.95 Q-30.7 47.1 -34.95 45.45 L-37.3 44.4 -37.6 44.25 Q-40.4 42.85 -42.4 41.05 L-42.95 40.55 Q-45 38.45 -46.3 36.1 -48.55 32 -48.55 26.95 L-48.1 -35.1 Q-46.9 -40.2 -42.95 -44.2 -37.3 -49.85 -29.35 -49.8 -15.25 -47.75 -1.15 -47.7 L0 -47.7 0.2 -47.7 1.15 -47.7 6.8 -47.8 Q18.1 -48.15 29.4 -49.8 L30 -49.8"/><path stroke="none" fill="rgb(0,0,0)" fill-opacity="0.3" d="M30 -49.8 L29.4 -49.8 Q18.1 -48.15 6.8 -47.8 L1.15 -47.7 0.2 -47.7 0 -47.7 -1.15 -47.7 Q-15.25 -47.75 -29.35 -49.8 -37.3 -49.85 -42.95 -44.2 -46.9 -40.2 -48.1 -35.1 L-48.55 26.95 Q-48.55 32 -46.3 36.1 -45 38.45 -42.95 40.55 L-42.4 41.05 Q-40.4 42.85 -37.6 44.25 L-37.3 44.4 -34.95 45.45 Q-30.7 47.1 -24.9 47.95 L-1.15 49.8 0 49.75 1.15 49.8 24.9 47.95 Q34.9 46.5 40.5 42.55 L42.05 41.35 42.95 40.55 Q48.55 34.9 48.55 26.95 L48.1 -35.1 Q46.9 -40.2 42.95 -44.2 37.5 -49.6 30 -49.8 M3.4 -50.65 L4.5 -50.65 11 -50.75 Q23.95 -51.2 36.95 -53.1 L37.65 -53.1 Q46.3 -52.85 52.55 -46.6 57.1 -42.05 58.5 -36.15 L59 35.2 Q59 44.3 52.55 50.8 L51.5 51.75 49.75 53.15 Q43.3 57.65 31.8 59.35 18.8 61.15 4.5 61.5 L3.15 61.4 1.85 61.5 Q-12.5 61.15 -25.45 59.35 -32.15 58.4 -37.05 56.5 L-39.75 55.25 -40.1 55.1 Q-43.3 53.45 -45.6 51.4 L-46.25 50.8 Q-48.6 48.45 -50.1 45.75 -52.7 41 -52.7 35.2 L-52.15 -36.15 Q-50.8 -42.05 -46.25 -46.6 -39.75 -53.1 -30.6 -53.1 -14.4 -50.7 1.85 -50.65 L3.15 -50.65 3.4 -50.65"/></g><g xmlns="http://www.w3.org/2000/svg" id=":m96-256" bounds="39,31,145,94"><text x="0" y="124" font-family="&apos;Century Gothic Bold&apos;" font-size="125" font-weight="bold" fill="#000000" style="white-space:pre" transform="matrix(1 0 0 1 35.65 0)">4</text></g><g xmlns="http://www.w3.org/2000/svg" id=":m98-256" bounds="107,30,476,95"><text x="0" y="121" font-family="&apos;Century Gothic&apos;" font-size="125" fill="#000000" style="white-space:pre" transform="matrix(1 0 0 1 99.85 0)">cuatro</text></g><g xmlns="http://www.w3.org/2000/svg" id=":m89-256" bounds="62,3,95,35"><path fill="rgb(204,204,204)" stroke="rgb(214,214,214)" stroke-width="1" stroke-opacity="0" stroke-linecap="round" stroke-linejoin="round" d="M62.15 3.2 L156.15 3.2 156.15 37.2 62.15 37.2 62.15 3.2 Z"/></g><g xmlns="http://www.w3.org/2000/svg" id=":m91-256" bounds="96,24,95,22"><path fill="rgb(204,204,204)" stroke="rgb(214,214,214)" stroke-width="1" stroke-opacity="0" stroke-linecap="round" stroke-linejoin="round" d="M95.6 24 L189.6 24 189.6 45 95.6 45 95.6 24 Z"/></g></defs><g id="s0"><clipPath id="s0d1cp117"><path stroke="none" fill="rgb(255,255,255)" d="M101.55 -196.25 Q431 -266.4 337.5 -26.85 317.1 32.25 340.65 139.2 364.25 246.15 169.1 213.9 -26.15 181.6 -199.6 216.6 -373.1 251.65 -347.95 130.05 -322.9 8.4 -339.55 -36.05 -437.65 -297.3 -20.7 -195.95 42.6 -184.7 101.55 -196.25 Z"/></clipPath><use  id="s0d1m1" x="0" y="0" xlink:href="#:m1-256"/><use  id="s0d1m99" x="0" y="0" xlink:href="#:m99-256"/><use  id="s0d3m2" x="0" y="0" xlink:href="#:m2-256"/><use  id="s0d3m116" x="0" y="0" xlink:href="#:m116-256"/><use  id="s0d3m118" x="0" y="0" xlink:href="#:m118-256"/><use  id="s0d4m3" x="0" y="0" xlink:href="#:m3-256"/><use  id="s0d4m119" x="0" y="0" xlink:href="#:m119-256"/><g id="s0d4m200"><g id="s200"><use  id="s200d1m124" x="0" y="0" xlink:href="#:m124-256"/></g></g><use  id="s0d6m4" x="0" y="0" xlink:href="#:m4-256"/><g id="s0d6m201"><g id="s201"><use  id="s201d1m205" x="0" y="0" xlink:href="#:m124-256"/></g></g><use  id="s0d7m5" x="0" y="0" xlink:href="#:m5-256"/><use  id="s0d8m7" x="0" y="0" xlink:href="#:m7-256"/><g id="s0d8m202"><g id="s202"><use  id="s202d1m126" x="0" y="0" xlink:href="#:m126-256"/><g id="s202d2m129"><g id="s129"><g id="s129d1m128"><g id="s128"><use  id="s128d1m127" x="0" y="0" xlink:href="#:m127-256"/></g></g></g></g><g id="s202d4m132"><g id="s132"><g id="s132d1m131"><g id="s131"><use  id="s131d2m130" x="0" y="0" xlink:href="#:m130-256"/></g></g></g></g></g></g><use  id="s0d9m8" x="0" y="0" xlink:href="#:m8-256"/><use  id="s0d10m134" x="0" y="0" xlink:href="#:m5-256"/><use  id="s0d11m9" x="0" y="0" xlink:href="#:m9-256"/><use  id="s0d12m10" x="0" y="0" xlink:href="#:m10-256"/><use  id="s0d13m135" x="0" y="0" xlink:href="#:m5-256"/><g id="s0d13m197"><g id="s197"><use  id="s197d1m206" x="0" y="0" xlink:href="#:m124-256"/></g></g><use  id="s0d14m11" x="0" y="0" xlink:href="#:m11-256"/><use  id="s0d15m12" x="0" y="0" xlink:href="#:m12-256"/><g id="s0d15m198"><g id="s198"><use  id="s198d1m207" x="0" y="0" xlink:href="#:m124-256"/></g></g><use  id="s0d16m136" x="0" y="0" xlink:href="#:m5-256"/><use  id="s0d17m13" x="0" y="0" xlink:href="#:m13-256"/><g id="s0d17m199"><g id="s199"><use  id="s199d1m208" x="0" y="0" xlink:href="#:m126-256"/><g id="s199d2m209"><g id="s209"><g id="s209d1m211"><g id="s211"><use  id="s211d1m212" x="0" y="0" xlink:href="#:m127-256"/></g></g></g></g><g id="s199d4m210"><g id="s210"><g id="s210d1m213"><g id="s213"><use  id="s213d2m214" x="0" y="0" xlink:href="#:m130-256"/></g></g></g></g></g></g><use  id="s0d18m14" x="0" y="0" xlink:href="#:m14-256"/><use  id="s0d19m137" x="0" y="0" xlink:href="#:m5-256"/><use  id="s0d20m15" x="0" y="0" xlink:href="#:m15-256"/><use  id="s0d21m16" x="0" y="0" xlink:href="#:m16-256"/><use  id="s0d22m138" x="0" y="0" xlink:href="#:m5-256"/><g id="s0d22m194"><g id="s194"><use  id="s194d1m215" x="0" y="0" xlink:href="#:m124-256"/></g></g><use  id="s0d23m17" x="0" y="0" xlink:href="#:m17-256"/><use  id="s0d24m18" x="0" y="0" xlink:href="#:m18-256"/><g id="s0d24m195"><g id="s195"><use  id="s195d1m216" x="0" y="0" xlink:href="#:m124-256"/></g></g><use  id="s0d25m139" x="0" y="0" xlink:href="#:m5-256"/><use  id="s0d26m19" x="0" y="0" xlink:href="#:m19-256"/><g id="s0d26m196"><g id="s196"><use  id="s196d1m217" x="0" y="0" xlink:href="#:m126-256"/><g id="s196d2m218"><g id="s218"><g id="s218d1m220"><g id="s220"><use  id="s220d1m221" x="0" y="0" xlink:href="#:m127-256"/></g></g></g></g><g id="s196d4m219"><g id="s219"><g id="s219d1m222"><g id="s222"><use  id="s222d2m223" x="0" y="0" xlink:href="#:m130-256"/></g></g></g></g></g></g><use  id="s0d27m20" x="0" y="0" xlink:href="#:m20-256"/><use  id="s0d28m140" x="0" y="0" xlink:href="#:m5-256"/><use  id="s0d29m21" x="0" y="0" xlink:href="#:m21-256"/><use  id="s0d30m23" x="0" y="0" xlink:href="#:m23-256"/><use  id="s0d31m141" x="0" y="0" xlink:href="#:m5-256"/><g id="s0d31m125"><g id="s125"><use  id="s125d1m224" x="0" y="0" xlink:href="#:m124-256"/></g></g><use  id="s0d32m24" x="0" y="0" xlink:href="#:m24-256"/><use  id="s0d33m25" x="0" y="0" xlink:href="#:m25-256"/><g id="s0d33m193"><g id="s193"><use  id="s193d1m225" x="0" y="0" xlink:href="#:m124-256"/></g></g><use  id="s0d34m142" x="0" y="0" xlink:href="#:m5-256"/><use  id="s0d35m26" x="0" y="0" xlink:href="#:m26-256"/><g id="s0d35m133"><g id="s133"><use  id="s133d1m226" x="0" y="0" xlink:href="#:m126-256"/><g id="s133d2m227"><g id="s227"><g id="s227d1m229"><g id="s229"><use  id="s229d1m230" x="0" y="0" xlink:href="#:m127-256"/></g></g></g></g><g id="s133d4m228"><g id="s228"><g id="s228d1m231"><g id="s231"><use  id="s231d2m232" x="0" y="0" xlink:href="#:m130-256"/></g></g></g></g></g></g><use  id="s0d36m27" x="0" y="0" xlink:href="#:m27-256"/><use  id="s0d37m143" x="0" y="0" xlink:href="#:m3-256"/><use  id="s0d38m28" x="0" y="0" xlink:href="#:m28-256"/><use  id="s0d39m29" x="0" y="0" xlink:href="#:m29-256"/><use  id="s0d40m144" x="0" y="0" xlink:href="#:m3-256"/><use  id="s0d40m203" x="0" y="0" xlink:href="#:m119-256"/><use  id="s0d40m123" x="0" y="0" xlink:href="#:m123-256"/><use  id="s0d41m30" x="0" y="0" xlink:href="#:m30-256"/><use  id="s0d42m31" x="0" y="0" xlink:href="#:m31-256"/><use  id="s0d43m32" x="0" y="0" xlink:href="#:m32-256"/><g id="s0d43m121"><g id="s121"><use  id="s121d1m120" x="0" y="0" xlink:href="#:m120-256"/></g></g><use  id="s0d44m33" x="0" y="0" xlink:href="#:m33-256"/><use  id="s0d45m34" x="0" y="0" xlink:href="#:m34-256"/><use  id="s0d45m122" x="0" y="0" xlink:href="#:m122-256"/><use  id="s0d46m35" x="0" y="0" xlink:href="#:m35-256"/><use  id="s0d47m145" x="0" y="0" xlink:href="#:m3-256"/><use  id="s0d48m36" x="0" y="0" xlink:href="#:m36-256"/><use  id="s0d49m146" x="0" y="0" xlink:href="#:m3-256"/><use  id="s0d50m37" x="0" y="0" xlink:href="#:m37-256"/><use  id="s0d51m147" x="0" y="0" xlink:href="#:m3-256"/><use  id="s0d52m38" x="0" y="0" xlink:href="#:m38-256"/><use  id="s0d53m148" x="0" y="0" xlink:href="#:m3-256"/><use  id="s0d54m39" x="0" y="0" xlink:href="#:m39-256"/><use  id="s0d55m149" x="0" y="0" xlink:href="#:m3-256"/><use  id="s0d56m40" x="0" y="0" xlink:href="#:m40-256"/><use  id="s0d57m150" x="0" y="0" xlink:href="#:m3-256"/><use  id="s0d58m41" x="0" y="0" xlink:href="#:m41-256"/><use  id="s0d59m151" x="0" y="0" xlink:href="#:m3-256"/><use  id="s0d60m42" x="0" y="0" xlink:href="#:m42-256"/><use  id="s0d61m152" x="0" y="0" xlink:href="#:m3-256"/><use  id="s0d62m43" x="0" y="0" xlink:href="#:m43-256"/><use  id="s0d63m153" x="0" y="0" xlink:href="#:m3-256"/><use  id="s0d64m44" x="0" y="0" xlink:href="#:m44-256"/><use  id="s0d65m154" x="0" y="0" xlink:href="#:m3-256"/><use  id="s0d66m45" x="0" y="0" xlink:href="#:m45-256"/><use  id="s0d67m155" x="0" y="0" xlink:href="#:m3-256"/><use  id="s0d68m46" x="0" y="0" xlink:href="#:m46-256"/><use  id="s0d69m47" x="0" y="0" xlink:href="#:m47-256"/><use  id="s0d70m156" x="0" y="0" xlink:href="#:m3-256"/><use  id="s0d71m48" x="0" y="0" xlink:href="#:m48-256"/><use  id="s0d72m49" x="0" y="0" xlink:href="#:m49-256"/><use  id="s0d73m157" x="0" y="0" xlink:href="#:m34-256"/><use  id="s0d74m50" x="0" y="0" xlink:href="#:m50-256"/><use  id="s0d75m51" x="0" y="0" xlink:href="#:m51-256"/><use  id="s0d76m158" x="0" y="0" xlink:href="#:m32-256"/><use  id="s0d77m52" x="0" y="0" xlink:href="#:m52-256"/><use  id="s0d78m159" x="0" y="0" xlink:href="#:m3-256"/><use  id="s0d79m53" x="0" y="0" xlink:href="#:m53-256"/><use  id="s0d80m160" x="0" y="0" xlink:href="#:m3-256"/><use  id="s0d81m54" x="0" y="0" xlink:href="#:m54-256"/><use  id="s0d82m161" x="0" y="0" xlink:href="#:m3-256"/><use  id="s0d83m55" x="0" y="0" xlink:href="#:m55-256"/><use  id="s0d84m162" x="0" y="0" xlink:href="#:m3-256"/><use  id="s0d85m56" x="0" y="0" xlink:href="#:m56-256"/><use  id="s0d86m57" x="0" y="0" xlink:href="#:m57-256"/><use  id="s0d87m163" x="0" y="0" xlink:href="#:m3-256"/><use  id="s0d88m58" x="0" y="0" xlink:href="#:m58-256"/><use  id="s0d89m164" x="0" y="0" xlink:href="#:m3-256"/><use  id="s0d90m59" x="0" y="0" xlink:href="#:m59-256"/><use  id="s0d91m165" x="0" y="0" xlink:href="#:m3-256"/><use  id="s0d92m60" x="0" y="0" xlink:href="#:m60-256"/><use  id="s0d93m166" x="0" y="0" xlink:href="#:m57-256"/><use  id="s0d94m167" x="0" y="0" xlink:href="#:m3-256"/><use  id="s0d95m61" x="0" y="0" xlink:href="#:m61-256"/><use  id="s0d96m168" x="0" y="0" xlink:href="#:m3-256"/><use  id="s0d97m62" x="0" y="0" xlink:href="#:m62-256"/><use  id="s0d98m169" x="0" y="0" xlink:href="#:m3-256"/><use  id="s0d99m63" x="0" y="0" xlink:href="#:m63-256"/><use  id="s0d100m64" x="0" y="0" xlink:href="#:m64-256"/><use  id="s0d101m170" x="0" y="0" xlink:href="#:m3-256"/><use  id="s0d103m65" x="0" y="0" xlink:href="#:m65-256"/><use  id="s0d104m66" x="0" y="0" xlink:href="#:m66-256"/><use  id="s0d105m67" x="0" y="0" xlink:href="#:m67-256"/><use  id="s0d106m68" x="0" y="0" xlink:href="#:m68-256"/><use  id="s0d107m69" x="0" y="0" xlink:href="#:m69-256"/><use  id="s0d108m171" x="0" y="0" xlink:href="#:m3-256"/><use  id="s0d109m70" x="0" y="0" xlink:href="#:m70-256"/><use  id="s0d110m172" x="0" y="0" xlink:href="#:m3-256"/><use  id="s0d111m71" x="0" y="0" xlink:href="#:m71-256"/><use  id="s0d112m173" x="0" y="0" xlink:href="#:m3-256"/><use  id="s0d113m72" x="0" y="0" xlink:href="#:m72-256"/><use  id="s0d114m174" x="0" y="0" xlink:href="#:m3-256"/><use  id="s0d115m73" x="0" y="0" xlink:href="#:m73-256"/><use  id="s0d116m175" x="0" y="0" xlink:href="#:m3-256"/><use  id="s0d117m74" x="0" y="0" xlink:href="#:m74-256"/><use  id="s0d118m176" x="0" y="0" xlink:href="#:m3-256"/><use  id="s0d119m75" x="0" y="0" xlink:href="#:m75-256"/><use  id="s0d120m177" x="0" y="0" xlink:href="#:m3-256"/><use  id="s0d121m76" x="0" y="0" xlink:href="#:m76-256"/><use  id="s0d122m178" x="0" y="0" xlink:href="#:m3-256"/><use  id="s0d123m77" x="0" y="0" xlink:href="#:m77-256"/><use  id="s0d124m78" x="0" y="0" xlink:href="#:m78-256"/><use  id="s0d125m179" x="0" y="0" xlink:href="#:m3-256"/><use  id="s0d126m79" x="0" y="0" xlink:href="#:m79-256"/><use  id="s0d127m80" x="0" y="0" xlink:href="#:m80-256"/><use  id="s0d128m180" x="0" y="0" xlink:href="#:m3-256"/><use  id="s0d129m81" x="0" y="0" xlink:href="#:m81-256"/><use  id="s0d130m82" x="0" y="0" xlink:href="#:m82-256"/><use  id="s0d131m83" x="0" y="0" xlink:href="#:m83-256"/><use  id="s0d132m181" x="0" y="0" xlink:href="#:m69-256"/><use  id="s0d133m182" x="0" y="0" xlink:href="#:m34-256"/><use  id="s0d134m84" x="0" y="0" xlink:href="#:m84-256"/><use  id="s0d135m183" x="0" y="0" xlink:href="#:m34-256"/><use  id="s0d136m85" x="0" y="0" xlink:href="#:m85-256"/><use  id="s0d137m86" x="0" y="0" xlink:href="#:m86-256"/><use  id="s0d138m184" x="0" y="0" xlink:href="#:m34-256"/><use  id="s0d140m87" x="0" y="0" xlink:href="#:m87-256"/><use  id="s0d141m88" x="0" y="0" xlink:href="#:m88-256"/><use  id="s0d142m185" x="0" y="0" xlink:href="#:m34-256"/><use  id="s0d144m186" x="0" y="0" xlink:href="#:m87-256"/><use  id="s0d145m187" x="0" y="0" xlink:href="#:m34-256"/><use  id="s0d146m188" x="0" y="0" xlink:href="#:m85-256"/><use  id="s0d147m189" x="0" y="0" xlink:href="#:m86-256"/><use  id="s0d148m190" x="0" y="0" xlink:href="#:m3-256"/><use  id="s0d149m191" x="0" y="0" xlink:href="#:m34-256"/><use  id="s0d150m192" x="0" y="0" xlink:href="#:m84-256"/><g id="s0d151m94"><g id="s94"><use  id="s94d2m233" x="0" y="0" xlink:href="#:m93-256"/></g></g><g id="s0d151m115"><g id="s115"><g id="s115d1m101"><g id="s101"><use  id="s101d1m100" x="0" y="0" xlink:href="#:m100-256"/></g></g><g id="s115d3m234"><g id="s234"><use  id="s234d1m243" x="0" y="0" xlink:href="#:m100-256"/></g></g><g id="s115d5m235"><g id="s235"><use  id="s235d1m244" x="0" y="0" xlink:href="#:m100-256"/></g></g><g id="s115d7m104"><g id="s104"><g id="s104d1m103"><g id="s103"><use  id="s103d1m102" x="0" y="0" xlink:href="#:m102-256"/></g></g><g id="s104d3m245"><g id="s245"><use  id="s245d1m246" x="0" y="0" xlink:href="#:m102-256"/></g></g></g></g><g id="s115d11m106"><g id="s106"><use  id="s106d2m105" x="0" y="0" xlink:href="#:m105-256"/></g></g><g id="s115d14m236"><g id="s236"><g id="s236d1m247"><g id="s247"><use  id="s247d1m249" x="0" y="0" xlink:href="#:m102-256"/></g></g><g id="s236d3m248"><g id="s248"><use  id="s248d1m250" x="0" y="0" xlink:href="#:m102-256"/></g></g></g></g><g id="s115d18m108"><g id="s108"><use  id="s108d2m107" x="0" y="0" xlink:href="#:m107-256"/></g></g><g id="s115d21m237"><g id="s237"><use  id="s237d1m251" x="0" y="0" xlink:href="#:m100-256"/></g></g><g id="s115d23m110"><g id="s110"><use  id="s110d1m109" x="0" y="0" xlink:href="#:m109-256"/></g></g><g id="s115d25m111"><g id="s111"/></g><use  id="s115d27m112" x="0" y="0" xlink:href="#:m112-256"/><use  id="s115d28m238" x="0" y="0" xlink:href="#:m112-256"/><use  id="s115d29m113" x="0" y="0" xlink:href="#:m113-256"/><g id="s115d30m239"><g id="s239"><use  id="s239d1m252" x="0" y="0" xlink:href="#:m100-256"/></g></g><g id="s115d32m240"><g id="s240"><use  id="s240d1m253" x="0" y="0" xlink:href="#:m100-256"/></g></g><g id="s115d34m241"><g id="s241"><use  id="s241d1m254" x="0" y="0" xlink:href="#:m100-256"/></g></g><g id="s115d36m242"><g id="s242"><use  id="s242d1m255" x="0" y="0" xlink:href="#:m100-256"/></g></g><use  id="s115d38m114" x="0" y="0" xlink:href="#:m114-256"/></g></g><use  id="s0d152m93" x="0" y="0" xlink:href="#:m93-256"/><use  id="s0d153m96" x="0" y="0" xlink:href="#:m96-256"/><use  id="s0d154m98" x="0" y="0" xlink:href="#:m98-256"/><g id="s0d190m90"><g id="s90"><use  id="s90d1m89" x="0" y="0" xlink:href="#:m89-256"/></g></g><g id="s0d192m92"><g id="s92"><use  id="s92d1m91" x="0" y="0" xlink:href="#:m91-256"/></g></g></g></svg>